<svg xmlns="http://www.w3.org/2000/svg" xmlns:xlink="http://www.w3.org/1999/xlink" width="173" height="173" viewBox="0 0 173 173">
  <defs>
    <polygon id="john-smiling-a" points=".928 .975 83.218 .975 83.218 59 .928 59"/>
  </defs>
  <g fill="none" fill-rule="evenodd" transform="translate(6 3)">
    <g transform="translate(0 88.097)">
      <path fill="#FCC9AD" d="M34.5038,9.5463 L21.0798,2.2243 C9.7738,-3.9427 -3.2362,6.9403 0.8368,19.1583 C3.6268,27.5283 12.5148,32.2173 20.9978,29.7923 L34.5038,25.9343"/>
      <path stroke="#E06A62" stroke-linecap="round" stroke-linejoin="round" stroke-width="6.145" d="M34.5038,9.5463 L21.0798,2.2243 C9.7738,-3.9427 -3.2362,6.9403 0.8368,19.1583 C3.6268,27.5283 12.5148,32.2173 20.9978,29.7923 L34.5038,25.9343"/>
    </g>
    <path fill="#FCC9AD" d="M14.6346,97.6433 L28.3926,104.3263 C29.0376,104.8103 28.6966,105.8373 27.8896,105.8373 L26.3106,105.8373 C24.0476,105.8373 22.2136,107.6713 22.2136,109.9343"/>
    <path fill="#E06A62" d="M15.0839,96.7175 C16.3459,97.0385 17.5659,97.4435 18.7719,97.8765 C19.9819,98.3035 21.1689,98.7785 22.3469,99.2695 C23.5249,99.7615 24.6899,100.2795 25.8409,100.8275 C27.0049,101.3485 28.1279,101.9545 29.2729,102.5135 C29.3779,102.5655 29.4769,102.6235 29.5679,102.6905 L29.6019,102.7145 C30.1369,103.1025 30.5789,103.8015 30.6819,104.5185 C30.7959,105.2375 30.6259,105.9335 30.2499,106.5145 C29.8829,107.0985 29.2239,107.5565 28.5349,107.7015 C28.3609,107.7445 28.1989,107.7585 28.0319,107.7665 C27.8129,107.7755 27.8549,107.7665 27.7769,107.7665 L27.4609,107.7535 L26.2469,107.6775 C26.0099,107.6445 25.7739,107.6765 25.5349,107.7175 C25.0509,107.7915 24.5829,108.0535 24.1799,108.4225 C23.7859,108.8055 23.4729,109.3105 23.3069,109.9345 L23.2739,110.0575 C23.1179,110.6455 22.5159,110.9955 21.9279,110.8395 C21.4879,110.7225 21.1829,110.3565 21.1199,109.9345 C20.9649,108.8715 21.1709,107.6955 21.7659,106.7065 C22.3359,105.7045 23.2719,104.8925 24.3829,104.4225 C24.9399,104.1965 25.5399,104.0455 26.1469,104.0085 C26.6679,103.9695 27.0179,103.9425 27.4609,103.9205 L27.7769,103.9075 C27.9759,103.9035 27.7739,103.8925 27.6469,103.9215 C27.3649,103.9715 27.0819,104.1745 26.9349,104.3965 C26.7799,104.6215 26.7169,104.8805 26.7519,105.1835 C26.7839,105.4845 26.9879,105.8015 27.1839,105.9385 L27.5129,106.1385 C26.3649,105.5845 25.1939,105.0765 24.0649,104.4835 C22.9229,103.9175 21.7949,103.3225 20.6809,102.7005 C19.5649,102.0775 18.4589,101.4385 17.3759,100.7515 C16.2889,100.0715 15.2169,99.3625 14.1849,98.5695 C13.7249,98.2155 13.6389,97.5555 13.9919,97.0955 C14.2559,96.7525 14.6889,96.6175 15.0839,96.7175"/>
    <g transform="translate(125 88.097)">
      <path fill="#FCC9AD" d="M0.6415,9.5463 L14.0655,2.2243 C25.3715,-3.9427 38.3815,6.9403 34.3085,19.1583 C31.5185,27.5283 22.6305,32.2173 14.1475,29.7923 L0.6415,25.9343"/>
      <path stroke="#E06A62" stroke-linecap="round" stroke-linejoin="round" stroke-width="6.145" d="M0.6415,9.5463 L14.0655,2.2243 C25.3715,-3.9427 38.3815,6.9403 34.3085,19.1583 C31.5185,27.5283 22.6305,32.2173 14.1475,29.7923 L0.6415,25.9343"/>
    </g>
    <path fill="#FCC9AD" d="M145.5106,97.6433 L131.7526,104.3263 C131.1076,104.8103 131.4486,105.8373 132.2556,105.8373 L133.8346,105.8373 C136.0976,105.8373 137.9316,107.6713 137.9316,109.9343"/>
    <path fill="#E06A62" d="M145.9608,98.5691 C144.9288,99.3621 143.8568,100.0721 142.7698,100.7521 C141.6868,101.4381 140.5798,102.0781 139.4648,102.7011 C138.3508,103.3231 137.2228,103.9181 136.0798,104.4831 C134.9508,105.0771 133.7808,105.5851 132.6328,106.1381 L132.9618,105.9381 C133.1568,105.8011 133.3608,105.4841 133.3938,105.1831 C133.4298,104.8811 133.3648,104.6221 133.2108,104.3961 C133.0638,104.1741 132.7788,103.9711 132.4998,103.9221 C132.3708,103.8921 132.1698,103.9031 132.3688,103.9081 L132.6848,103.9211 C133.1288,103.9421 133.4778,103.9691 133.9988,104.0081 C134.6058,104.0461 135.2048,104.1961 135.7618,104.4231 C136.8728,104.8921 137.8088,105.7051 138.3808,106.7071 C138.9748,107.6951 139.1798,108.8721 139.0248,109.9341 C138.9378,110.5361 138.3788,110.9531 137.7758,110.8651 C137.3268,110.7991 136.9818,110.4711 136.8708,110.0581 L136.8378,109.9341 C136.6728,109.3101 136.3588,108.8051 135.9668,108.4231 C135.5628,108.0531 135.0948,107.7921 134.6098,107.7171 C134.3708,107.6761 134.1368,107.6441 133.8978,107.6771 L132.6848,107.7541 L132.3688,107.7661 C132.2898,107.7661 132.3318,107.7751 132.1128,107.7661 C131.9468,107.7581 131.7848,107.7451 131.6098,107.7021 C130.9218,107.5561 130.2628,107.0981 129.8968,106.5141 C129.5198,105.9331 129.3498,105.2371 129.4638,104.5181 C129.5658,103.8011 130.0088,103.1021 130.5428,102.7151 L130.5678,102.6971 C130.6618,102.6291 130.7718,102.5641 130.8718,102.5131 C132.0178,101.9551 133.1408,101.3481 134.3048,100.8281 C135.4548,100.2791 136.6198,99.7611 137.7988,99.2691 C138.9768,98.7781 140.1638,98.3031 141.3728,97.8771 C142.5798,97.4431 143.7998,97.0391 145.0618,96.7171 C145.6238,96.5751 146.1948,96.9151 146.3388,97.4771 C146.4448,97.8961 146.2828,98.3211 145.9608,98.5691"/>
    <path fill="#FCC9AD" d="M80.0731,0.072 L80.0721,0.072 C43.7391,0.072 16.2161,32.879 22.5301,68.659 L32.5801,125.612 C34.1391,134.448 39.0021,142.361 46.1791,147.745 L57.9501,156.572 C64.3321,161.359 72.0941,163.946 80.0721,163.946 L80.0731,163.946 C88.0511,163.946 95.8131,161.359 102.1951,156.572 L113.9661,147.745 C121.1431,142.361 126.0061,134.448 127.5651,125.612 L137.6161,68.659 C143.9291,32.879 116.4061,0.072 80.0731,0.072"/>
    <path stroke="#E06A62" stroke-linecap="round" stroke-linejoin="round" stroke-width="6.145" d="M80.0731,0.072 L80.0721,0.072 C43.7391,0.072 16.2161,32.879 22.5301,68.659 L32.5801,125.612 C34.1391,134.448 39.0021,142.361 46.1791,147.745 L57.9501,156.572 C64.3321,161.359 72.0941,163.946 80.0721,163.946 L80.0731,163.946 C88.0511,163.946 95.8131,161.359 102.1951,156.572 L113.9661,147.745 C121.1431,142.361 126.0061,134.448 127.5651,125.612 L137.6161,68.659 C143.9291,32.879 116.4061,0.072 80.0731,0.072 Z"/>
    <g transform="translate(38 111.097)">
      <mask id="john-smiling-b" fill="#fff">
        <use xlink:href="#john-smiling-a"/>
      </mask>
      <path fill="#E06A62" d="M76.4813,7.8383 L82.8523,34.5973 C84.1883,40.2073 81.7833,46.0423 76.8823,49.0823 C55.5613,62.3053 28.5883,62.3063 7.2663,49.0843 L7.2633,49.0813 C2.3623,46.0423 -0.0427,40.2073 1.2933,34.5973 L7.6643,7.8383 C8.6223,3.8153 12.2163,0.9753 16.3523,0.9753 L67.7923,0.9753 C71.9283,0.9753 75.5233,3.8153 76.4813,7.8383" mask="url(#john-smiling-b)"/>
    </g>
    <path fill="#4D2A2D" d="M59.536,118.8386 C60.358,119.4366 61.167,120.0486 61.96,120.6766 C62.363,120.9846 62.748,121.3106 63.141,121.6266 L63.728,122.1046 C63.889,122.2246 64.031,122.3216 64.189,122.4186 C64.797,122.8156 65.466,123.0916 66.148,123.2256 C66.498,123.2886 66.81,123.3416 67.187,123.3566 L68.664,123.4636 C70.672,123.5936 72.667,123.8306 74.669,124.0086 L80.652,124.7336 C82.64,125.0246 84.634,125.2796 86.618,125.6016 L87.362,125.7246 C87.624,125.7706 87.768,125.7746 87.977,125.8046 C88.363,125.8466 88.787,125.8816 89.192,125.8776 C90.012,125.8776 90.839,125.8466 91.659,125.7116 C93.293,125.4296 94.913,124.8876 96.408,124.0366 C97.182,123.6096 97.828,123.1436 98.601,122.5356 C99.388,121.9016 100.191,121.2846 101.006,120.6786 C101.723,120.1446 102.736,120.2926 103.269,121.0086 C103.708,121.5966 103.685,122.3846 103.269,122.9426 C102.663,123.7566 102.047,124.5616 101.412,125.3476 C100.769,126.1646 99.914,127.0416 99.043,127.7726 C97.248,129.2316 95.129,130.3456 92.846,130.9606 C91.707,131.2746 90.529,131.4776 89.34,131.5306 C88.742,131.5686 88.159,131.5646 87.545,131.5366 C87.254,131.5186 86.895,131.5046 86.66,131.4776 L85.91,131.4016 C83.912,131.1926 81.922,130.9176 79.927,130.6796 L73.961,129.8136 C71.979,129.4606 69.991,129.1676 68.016,128.7686 L66.506,128.4776 C65.887,128.3656 65.214,128.1976 64.608,127.9526 C63.379,127.4686 62.261,126.7486 61.323,125.8626 C61.094,125.6406 60.869,125.3956 60.671,125.1626 L60.193,124.5746 C59.877,124.1816 59.551,123.7966 59.243,123.3936 C58.615,122.6006 58.003,121.7916 57.404,120.9696 C56.909,120.2886 57.059,119.3336 57.74,118.8386 C58.289,118.4396 59.015,118.4606 59.536,118.8386"/>
    <path fill="#4D2A2D" d="M52.8934 120.9207C53.3184 119.8107 53.9284 119.0317 54.6834 118.3307 55.4314 117.6407 56.3084 117.0997 57.2574 116.7177 59.1344 115.9477 61.3704 115.7507 63.3154 116.6607 64.0464 117.0037 64.3634 117.8747 64.0204 118.6067 63.9014 118.8597 63.7194 119.0647 63.5014 119.2077L63.3154 119.3297C62.5344 119.8407 61.8354 120.1317 61.1584 120.4737 60.4784 120.7777 59.8194 121.0657 59.1464 121.3437 58.4744 121.6177 57.7854 121.8737 57.0524 122.1157 56.3264 122.3437 55.5214 122.6087 54.6694 122.6967L54.2864 122.7357C53.5484 122.8127 52.8884 122.2757 52.8124 121.5377 52.7894 121.3227 52.8224 121.1087 52.8934 120.9207M97.5917 118.6541C98.7257 118.2961 99.7137 118.2911 100.7347 118.4451 101.7387 118.6021 102.7077 118.9521 103.5977 119.4581 105.3677 120.4491 106.9117 122.0771 107.4087 124.1661 107.5957 124.9531 107.1107 125.7421 106.3237 125.9281 106.0507 125.9941 105.7787 125.9771 105.5297 125.8961L105.3187 125.8261C104.4337 125.5321 103.7717 125.1671 103.0807 124.8481 102.4197 124.5051 101.7847 124.1681 101.1497 123.8141 100.5167 123.4591 99.8877 123.0781 99.2417 122.6551 98.6127 122.2271 97.9037 121.7611 97.3057 121.1501L97.0357 120.8741C96.5177 120.3431 96.5277 119.4931 97.0577 118.9741 97.2117 118.8231 97.3997 118.7161 97.5917 118.6541"/>
    <path fill="#E06A62" d="M63.9803 54.0564C61.2393 55.2414 58.6833 56.5174 56.3063 58.0354 53.9323 59.5504 51.7663 61.3144 49.7923 63.2674 47.8313 65.2334 46.0843 67.4134 44.5773 69.7894 43.0703 72.1694 41.8193 74.7334 40.6733 77.4734L40.6613 77.5044C40.3153 78.3324 39.3623 78.7244 38.5333 78.3784 37.9003 78.1144 37.5233 77.4924 37.5340657 76.8454 37.5983 73.5634 38.4413 70.2844 39.8333 67.2494 41.2213 64.2104 43.1733 61.4054 45.5533 59.0274 47.9243 56.6384 50.7443 54.7034 53.7853 53.3234 56.8223 51.9414 60.1093 51.1234 63.3893 51.1003467 64.2373 51.0934 64.9293 51.7764 64.9353485 52.6234 64.9403 53.2584 64.5583 53.8054 64.0113 54.0434L63.9803 54.0564zM96.7557 51.1002658C100.0357 51.1233 103.3237 51.9413 106.3607 53.3233 109.4017 54.7043 112.2207 56.6383 114.5917 59.0273 116.9707 61.4053 118.9237 64.2103 120.3127 67.2493 121.7047 70.2843 122.5467 73.5633 122.6107 76.8453 122.6287 77.7443 121.9147 78.4863 121.0177 78.5033 120.3307 78.5173 119.7357 78.1043 119.4847 77.5073L119.4707 77.4733C118.3257 74.7333 117.0747 72.1693 115.5677 69.7893 114.0607 67.4133 112.3147 65.2333 110.3517 63.2673 108.3787 61.3143 106.2127 59.5503 103.8387 58.0353 101.4607 56.5173 98.9057 55.2413 96.1637 54.0563L96.1357 54.0433C95.3577 53.7073 94.9987 52.8033 95.3357 52.0263 95.5877 51.4433 96.1577 51.0963 96.7557 51.1002658"/>
    <path fill="#FCC9AD" d="M71.0966,109.9343 C74.7946,117.3303 85.3506,117.3303 89.0486,109.9343"/>
    <path fill="#E06A62" d="M72.2196,109.3718 C73.4296,110.5968 74.6406,111.4998 75.9606,112.0898 C77.2736,112.6808 78.6676,112.9748 80.0726,112.9828 C81.4776,112.9768 82.8736,112.6778 84.1746,112.0738 C85.4906,111.4818 86.6816,110.5618 87.8556,109.3378 L87.9236,109.2658 C88.4476,108.7208 89.3126,108.7018 89.8586,109.2248 C90.2216,109.5718 90.3506,110.0748 90.2416,110.5308 C89.7436,112.6138 88.3806,114.5608 86.5336,115.9078 C84.6826,117.2548 82.3736,117.9808 80.0726,117.979816 C77.7716,117.9838 75.4606,117.2518 73.6206,115.8928 C71.7786,114.5448 70.4366,112.5798 69.9726,110.4958 C69.8186,109.7988 70.2576,109.1078 70.9546,108.9528 C71.4026,108.8528 71.8466,108.9988 72.1486,109.2998 L72.2196,109.3718 Z"/>
    <path fill="#4D2A2D" d="M45.5458 97.4832C46.0388 96.6422 46.6648 95.9032 47.3108 95.1512 47.6838 94.8222 48.0708 94.4982 48.4728 94.1842 48.8848 93.8832 49.2578 93.5362 49.7558 93.3162 51.5668 92.2472 53.9458 91.6862 56.3268 91.9662 58.7268 92.2392 60.9238 93.4442 62.4288 94.9782 63.1758 95.7602 63.8238 96.5922 64.3008 97.5022 64.7928 98.4292 65.1398 99.2952 65.3578 100.4392 65.5528 101.4642 64.8788 102.4552 63.8528 102.6502 63.3998 102.7362 62.9538 102.6532 62.5808 102.4452L62.0288 102.1372C61.4328 101.8052 60.8128 101.2782 60.2098 100.9232 59.6198 100.5252 59.0378 100.1962 58.4898 99.8982 57.3808 99.3152 56.4078 99.0132 55.4478 98.9072 55.2148 98.8272 54.9528 98.8862 54.7058 98.8602 54.5798 98.8572 54.4538 98.8302 54.3238 98.8222L53.9188 98.8732C53.6428 98.9052 53.3708 98.8632 53.0698 98.9322 52.7728 98.9992 52.4678 99.0542 52.1478 99.0922 51.8298 99.1082 51.4998 99.2482 51.1618 99.3282 50.8228 99.4182 50.4698 99.4972 50.1038 99.5702 49.3778 99.7992 48.6438 100.0582 47.7718 100.2072L47.4608 100.2592C46.4478 100.4302 45.4878 99.7492 45.3168 98.7362 45.2398 98.2872 45.3318 97.8472 45.5458 97.4832M112.3905 100.2068C111.5185 100.0588 110.7845 99.7998 110.0585 99.5698 109.6915 99.4968 109.3385 99.4178 108.9985 99.3278 108.6615 99.2478 108.3315 99.1078 108.0135 99.0928 107.6945 99.0548 107.3885 98.9988 107.0915 98.9328 106.7905 98.8628 106.5195 98.9048 106.2425 98.8728L105.8365 98.8218C105.7065 98.8298 105.5815 98.8568 105.4555 98.8598 105.2075 98.8868 104.9475 98.8268 104.7135 98.9068 103.7535 99.0138 102.7805 99.3148 101.6705 99.8978 101.1225 100.1958 100.5405 100.5248 99.9515 100.9238 99.3485 101.2778 98.7285 101.8058 98.1315 102.1378L97.5825 102.4438C96.6695 102.9518 95.5185 102.6248 95.0095 101.7128 94.7865 101.3108 94.7245 100.8578 94.8045 100.4388 95.0215 99.2958 95.3695 98.4298 95.8605 97.5018 96.3375 96.5928 96.9865 95.7608 97.7325 94.9778 99.2375 93.4438 101.4345 92.2388 103.8345 91.9668 106.2145 91.6858 108.5945 92.2468 110.4055 93.3158 110.9035 93.5358 111.2765 93.8838 111.6895 94.1848 112.0895 94.4978 112.4775 94.8218 112.8515 95.1508 113.4955 95.9028 114.1215 96.6428 114.6155 97.4828 115.1355 98.3688 114.8395 99.5098 113.9525 100.0288 113.5605 100.2598 113.1195 100.3298 112.7025 100.2598L112.3905 100.2068z"/>
  </g>
</svg>
