<svg xmlns="http://www.w3.org/2000/svg" xmlns:xlink="http://www.w3.org/1999/xlink" width="173" height="173" viewBox="0 0 173 173">
  <defs>
    <polygon id="john-surprised-a" points=".928 .975 83.218 .975 83.218 59 .928 59"/>
  </defs>
  <g fill="none" fill-rule="evenodd" transform="translate(6 3)">
    <g transform="translate(0 88.097)">
      <path fill="#FCC9AD" d="M34.5039,9.5463 L21.0799,2.2243 C9.7739,-3.9427 -3.2361,6.9403 0.8359,19.1583 C3.6269,27.5283 12.5149,32.2173 20.9979,29.7923 L34.5039,25.9343"/>
      <path stroke="#E06A62" stroke-linecap="round" stroke-linejoin="round" stroke-width="6.145" d="M34.5039,9.5463 L21.0799,2.2243 C9.7739,-3.9427 -3.2361,6.9403 0.8359,19.1583 C3.6269,27.5283 12.5149,32.2173 20.9979,29.7923 L34.5039,25.9343"/>
    </g>
    <path fill="#FCC9AD" d="M14.6347,97.6433 L28.3927,104.3263 C29.0377,104.8103 28.6967,105.8373 27.8897,105.8373 L26.3107,105.8373 C24.0477,105.8373 22.2137,107.6713 22.2137,109.9343"/>
    <path fill="#E06A62" d="M15.0839,96.7175 C16.3449,97.0385 17.5649,97.4435 18.7719,97.8765 C19.9809,98.3035 21.1689,98.7785 22.3469,99.2695 C23.5239,99.7615 24.6899,100.2795 25.8409,100.8275 C27.0049,101.3485 28.1279,101.9545 29.2719,102.5135 C29.3779,102.5655 29.4769,102.6235 29.5679,102.6905 L29.6029,102.7145 C30.1369,103.1025 30.5789,103.8015 30.6809,104.5185 C30.7959,105.2375 30.6259,105.9335 30.2489,106.5145 C29.8839,107.0985 29.2239,107.5565 28.5349,107.7015 C28.3599,107.7445 28.1979,107.7585 28.0319,107.7665 C27.8129,107.7755 27.8549,107.7665 27.7759,107.7665 L27.4609,107.7535 L26.2469,107.6775 C26.0089,107.6445 25.7739,107.6765 25.5359,107.7175 C25.0509,107.7915 24.5829,108.0535 24.1789,108.4225 C23.7859,108.8055 23.4729,109.3105 23.3079,109.9345 L23.2739,110.0575 C23.1179,110.6455 22.5149,110.9955 21.9269,110.8395 C21.4879,110.7225 21.1829,110.3565 21.1199,109.9345 C20.9659,108.8715 21.1709,107.6955 21.7649,106.7065 C22.3369,105.7045 23.2719,104.8925 24.3839,104.4225 C24.9399,104.1965 25.5399,104.0455 26.1469,104.0085 C26.6679,103.9695 27.0169,103.9425 27.4609,103.9205 L27.7759,103.9075 C27.9759,103.9035 27.7739,103.8925 27.6459,103.9215 C27.3659,103.9715 27.0819,104.1745 26.9349,104.3965 C26.7799,104.6215 26.7159,104.8805 26.7509,105.1835 C26.7839,105.4845 26.9869,105.8015 27.1839,105.9385 L27.5129,106.1385 C26.3639,105.5845 25.1939,105.0765 24.0649,104.4835 C22.9229,103.9175 21.7949,103.3225 20.6809,102.7005 C19.5649,102.0775 18.4589,101.4385 17.3759,100.7515 C16.2889,100.0715 15.2159,99.3625 14.1849,98.5695 C13.7249,98.2155 13.6379,97.5555 13.9919,97.0955 C14.2549,96.7525 14.6899,96.6175 15.0839,96.7175"/>
    <g transform="translate(125 88.097)">
      <path fill="#FCC9AD" d="M0.6416,9.5463 L14.0656,2.2243 C25.3716,-3.9427 38.3816,6.9403 34.3086,19.1583 C31.5186,27.5283 22.6306,32.2173 14.1476,29.7923 L0.6416,25.9343"/>
      <path stroke="#E06A62" stroke-linecap="round" stroke-linejoin="round" stroke-width="6.145" d="M0.6416,9.5463 L14.0656,2.2243 C25.3716,-3.9427 38.3816,6.9403 34.3086,19.1583 C31.5186,27.5283 22.6306,32.2173 14.1476,29.7923 L0.6416,25.9343"/>
    </g>
    <path fill="#FCC9AD" d="M145.5107,97.6433 L131.7527,104.3263 C131.1077,104.8103 131.4487,105.8373 132.2557,105.8373 L133.8347,105.8373 C136.0977,105.8373 137.9317,107.6713 137.9317,109.9343"/>
    <path fill="#E06A62" d="M145.9599,98.5691 C144.9289,99.3621 143.8559,100.0721 142.7699,100.7521 C141.6869,101.4381 140.5799,102.0781 139.4659,102.7011 C138.3509,103.3231 137.2219,103.9181 136.0799,104.4831 C134.9509,105.0771 133.7799,105.5851 132.6329,106.1381 L132.9619,105.9381 C133.1569,105.8011 133.3599,105.4841 133.3939,105.1831 C133.4289,104.8811 133.3639,104.6221 133.2119,104.3961 C133.0639,104.1741 132.7799,103.9711 132.4989,103.9221 C132.3709,103.8921 132.1709,103.9031 132.3679,103.9081 L132.6849,103.9211 C133.1279,103.9421 133.4779,103.9691 133.9989,104.0081 C134.6049,104.0461 135.2049,104.1961 135.7629,104.4231 C136.8729,104.8921 137.8099,105.7051 138.3799,106.7071 C138.9749,107.6951 139.1809,108.8721 139.0239,109.9341 C138.9379,110.5361 138.3779,110.9531 137.7759,110.8651 C137.3269,110.7991 136.9809,110.4711 136.8709,110.0581 L136.8389,109.9341 C136.6729,109.3101 136.3589,108.8051 135.9659,108.4231 C135.5629,108.0531 135.0949,107.7921 134.6099,107.7171 C134.3709,107.6761 134.1359,107.6441 133.8969,107.6771 L132.6849,107.7541 L132.3679,107.7661 C132.2899,107.7661 132.3319,107.7751 132.1129,107.7661 C131.9459,107.7581 131.7839,107.7451 131.6099,107.7021 C130.9219,107.5561 130.2629,107.0981 129.8959,106.5141 C129.5199,105.9331 129.3499,105.2371 129.4639,104.5181 C129.5669,103.8011 130.0089,103.1021 130.5439,102.7151 L130.5669,102.6971 C130.6629,102.6291 130.7709,102.5641 130.8719,102.5131 C132.0179,101.9551 133.1399,101.3481 134.3049,100.8281 C135.4549,100.2791 136.6199,99.7611 137.7979,99.2691 C138.9769,98.7781 140.1629,98.3031 141.3729,97.8771 C142.5789,97.4431 143.7999,97.0391 145.0619,96.7171 C145.6239,96.5751 146.1959,96.9151 146.3389,97.4771 C146.4449,97.8961 146.2819,98.3211 145.9599,98.5691"/>
    <path fill="#FCC9AD" d="M80.0722,0.072 L80.0722,0.072 C43.7392,0.072 16.2162,32.879 22.5292,68.659 L32.5802,125.612 C34.1392,134.448 39.0022,142.361 46.1792,147.745 L57.9492,156.572 C64.3322,161.359 72.0942,163.946 80.0722,163.946 C88.0512,163.946 95.8132,161.359 102.1952,156.572 L113.9662,147.745 C121.1432,142.361 126.0062,134.448 127.5652,125.612 L137.6152,68.659 C143.9292,32.879 116.4062,0.072 80.0722,0.072"/>
    <path stroke="#E06A62" stroke-linecap="round" stroke-linejoin="round" stroke-width="6.145" d="M80.0722,0.072 L80.0722,0.072 C43.7392,0.072 16.2162,32.879 22.5292,68.659 L32.5802,125.612 C34.1392,134.448 39.0022,142.361 46.1792,147.745 L57.9492,156.572 C64.3322,161.359 72.0942,163.946 80.0722,163.946 C88.0512,163.946 95.8132,161.359 102.1952,156.572 L113.9662,147.745 C121.1432,142.361 126.0062,134.448 127.5652,125.612 L137.6152,68.659 C143.9292,32.879 116.4062,0.072 80.0722,0.072 Z"/>
    <g transform="translate(38 111.097)">
      <mask id="john-surprised-b" fill="#fff">
        <use xlink:href="#john-surprised-a"/>
      </mask>
      <path fill="#E06A62" d="M76.4814,7.8383 L82.8524,34.5973 C84.1884,40.2073 81.7834,46.0423 76.8824,49.0823 C55.5614,62.3053 28.5884,62.3063 7.2664,49.0843 L7.2634,49.0813 C2.3624,46.0423 -0.0426,40.2073 1.2934,34.5973 L7.6644,7.8383 C8.6224,3.8153 12.2164,0.9753 16.3524,0.9753 L67.7924,0.9753 C71.9284,0.9753 75.5234,3.8153 76.4814,7.8383" mask="url(#john-surprised-b)"/>
    </g>
    <path fill="#E06A62" d="M63.9814 54.0564C61.2394 55.2414 58.6844 56.5174 56.3064 58.0354 53.9324 59.5504 51.7664 61.3144 49.7934 63.2674 47.8314 65.2334 46.0854 67.4134 44.5774 69.7894 43.0694 72.1694 41.8194 74.7334 40.6744 77.4734L40.6614 77.5044C40.3154 78.3324 39.3624 78.7244 38.5334 78.3784 37.9004 78.1144 37.5224 77.4924 37.5344 76.8454 37.5984 73.5634 38.4404 70.2844 39.8334 67.2494 41.2214 64.2104 43.1744 61.4054 45.5534 59.0274 47.9244 56.6384 50.7434 54.7034 53.7844 53.3234 56.8214 51.9414 60.1094 51.1234 63.3894 51.1003467 64.2374 51.0934 64.9294 51.7764 64.9354486 52.6234 64.9404 53.2584 64.5594 53.8054 64.0104 54.0434L63.9814 54.0564zM96.7558 51.1002658C100.0358 51.1233 103.3228 51.9413 106.3598 53.3233 109.4018 54.7043 112.2208 56.6383 114.5918 59.0273 116.9718 61.4053 118.9238 64.2103 120.3128 67.2493 121.7038 70.2843 122.5468 73.5633 122.6108 76.8453 122.6288 77.7443 121.9148 78.4863 121.0168 78.5033 120.3308 78.5173 119.7348 78.1043 119.4848 77.5073L119.4718 77.4733C118.3258 74.7333 117.0748 72.1693 115.5678 69.7893 114.0608 67.4133 112.3148 65.2333 110.3528 63.2673 108.3788 61.3143 106.2128 59.5503 103.8388 58.0353 101.4618 56.5173 98.9058 55.2413 96.1648 54.0563L96.1358 54.0433C95.3578 53.7073 94.9988 52.8033 95.3348 52.0263 95.5868 51.4433 96.1588 51.0963 96.7558 51.1002658"/>
    <path fill="#FCC9AD" d="M71.0966,109.9343 C74.7946,117.3303 85.3506,117.3303 89.0486,109.9343"/>
    <path fill="#E06A62" d="M72.2197,109.3718 C73.4287,110.5968 74.6417,111.4998 75.9617,112.0898 C77.2727,112.6808 78.6677,112.9748 80.0737,112.9828 C81.4777,112.9768 82.8737,112.6778 84.1747,112.0738 C85.4907,111.4818 86.6807,110.5618 87.8557,109.3378 L87.9237,109.2658 C88.4467,108.7208 89.3137,108.7018 89.8587,109.2248 C90.2217,109.5718 90.3507,110.0748 90.2417,110.5308 C89.7437,112.6138 88.3807,114.5608 86.5337,115.9078 C84.6827,117.2548 82.3737,117.9808 80.0737,117.979816 C77.7707,117.9838 75.4607,117.2518 73.6207,115.8928 C71.7787,114.5448 70.4367,112.5798 69.9737,110.4958 C69.8177,109.7988 70.2567,109.1078 70.9537,108.9528 C71.4017,108.8528 71.8467,108.9988 72.1497,109.2998 L72.2197,109.3718 Z"/>
    <path fill="#FFF" d="M23.7363,90.5691 L26.2083,104.1611 C26.6533,106.6131 28.6793,108.4651 31.1613,108.6911 L36.6223,109.1881 C45.9593,110.0371 55.3603,109.8791 64.6633,108.7151 C66.6653,108.4651 68.3743,107.1461 69.1233,105.2731 L76.1523,87.7021 C76.3433,87.2211 76.0363,86.6881 75.5243,86.6151 L63.9203,84.9581 C52.2523,83.2911 40.4283,82.9881 28.6893,84.0541 C25.4453,84.3491 23.1533,87.3641 23.7363,90.5691"/>
    <polygon fill="#231F20" points="19.117 86.285 19.727 91.481 24.756 92.021 25.913 85.103"/>
    <path fill="#FFF" d="M136.4091,90.5691 L133.9371,104.1611 C133.4921,106.6131 131.4661,108.4651 128.9841,108.6911 L123.5231,109.1881 C114.1861,110.0371 104.7851,109.8791 95.4821,108.7151 C93.4791,108.4651 91.7711,107.1461 91.0211,105.2731 L83.9931,87.7021 C83.8021,87.2211 84.1091,86.6881 84.6211,86.6151 L96.2251,84.9581 C107.8931,83.2911 119.7171,82.9881 131.4561,84.0541 C134.6991,84.3491 136.9921,87.3641 136.4091,90.5691"/>
    <path fill="#231F20" d="M131.3388,83.4177 L132.6238,83.5797 C133.1178,83.6277 133.7438,83.8237 134.2138,84.1427 C134.7038,84.4597 135.1158,84.8997 135.4008,85.4167 C135.5458,85.6727 135.6528,85.9507 135.7318,86.2357 C135.7708,86.3787 135.7978,86.5237 135.8188,86.6707 L135.8648,87.0077 L136.1828,89.5797 L136.2628,90.2227 C136.2888,90.4367 136.3178,90.6887 136.3348,90.7197 C136.3828,90.8847 136.4928,91.0277 136.6378,91.1177 C136.7078,91.1627 136.7858,91.1927 136.8658,91.2087 C136.9638,91.2247 136.9658,91.2237 137.2408,91.2187 L138.5358,91.1937 L139.1468,91.1807 C139.2238,91.1737 139.2958,91.1537 139.3638,91.1217 C139.4978,91.0547 139.6098,90.9427 139.6608,90.8097 L140.3918,88.4847 L140.5848,87.8667 L140.6818,87.5577 C140.7078,87.4567 140.7038,87.4737 140.7098,87.4267 C140.7288,87.3027 140.6868,87.1827 140.6198,87.0777 C140.5438,86.9797 140.4498,86.9027 140.3368,86.8797 C140.2918,86.8667 140.3158,86.8757 140.2088,86.8567 L139.8878,86.8147 L139.2458,86.7307 L136.6768,86.3947 L131.5578,85.7427 C128.1568,85.3497 124.7448,85.0667 121.3268,84.8967 C114.4948,84.5737 107.6468,84.5757 100.8268,85.0917 C97.4128,85.3397 94.0298,85.7067 90.6218,86.1697 C87.1278,86.6297 83.6008,86.8897 80.0728,86.8797 C76.5448,86.8667 73.0188,86.6287 69.5228,86.1657 C66.1158,85.7047 62.7318,85.3407 59.3178,85.0957 C52.4988,84.5957 45.6508,84.5767 38.8178,84.9037 C35.4008,85.0787 31.9898,85.3647 28.5908,85.7627 L23.4718,86.4187 L20.9028,86.7587 L20.2608,86.8437 L19.9408,86.8857 C19.8348,86.9037 19.8598,86.8967 19.8178,86.9077 C19.7118,86.9317 19.6198,86.9967 19.5458,87.0907 C19.4838,87.1897 19.4438,87.3047 19.4618,87.4217 C19.4668,87.4677 19.4618,87.4477 19.4888,87.5497 L19.5868,87.8577 L19.7798,88.4767 L20.5128,90.7947 C20.5618,90.9217 20.6668,91.0267 20.7938,91.0907 C20.8588,91.1207 20.9268,91.1397 20.9998,91.1457 L21.6088,91.1577 L22.9028,91.1807 C23.1818,91.1857 23.1768,91.1867 23.2708,91.1717 C23.3448,91.1557 23.4188,91.1277 23.4848,91.0857 C23.6208,91.0007 23.7258,90.8657 23.7708,90.7097 C23.7858,90.6867 23.8148,90.4327 23.8408,90.2177 L23.9188,89.5747 L24.2348,87.0037 L24.2798,86.6647 C24.3018,86.5167 24.3288,86.3687 24.3688,86.2247 C24.4458,85.9357 24.5558,85.6537 24.7028,85.3947 C24.9898,84.8707 25.4068,84.4237 25.9028,84.1017 C26.3778,83.7777 27.0168,83.5767 27.5138,83.5287 L28.7988,83.3637 C29.3038,83.2997 29.7658,83.6557 29.8308,84.1607 C29.8938,84.6507 29.5578,85.1007 29.0758,85.1867 L27.7998,85.4107 C27.4428,85.4697 27.2408,85.5627 27.0048,85.7287 C26.7848,85.8877 26.6068,86.1027 26.4908,86.3437 C26.4308,86.4617 26.3918,86.5897 26.3638,86.7187 C26.3488,86.7827 26.3418,86.8497 26.3348,86.9147 L26.3098,87.2207 L26.0868,89.8017 L26.0298,90.4467 C26.0058,90.6607 26.0148,90.8407 25.9308,91.2367 C25.7748,91.9217 25.3558,92.5427 24.7798,92.9487 C24.4928,93.1527 24.1668,93.3057 23.8228,93.3957 C23.4988,93.4897 23.0568,93.4947 22.9028,93.4947 L21.6088,93.5177 L20.9218,93.5247 C20.5638,93.5177 20.2038,93.4437 19.8678,93.3097 C19.1998,93.0377 18.6298,92.5197 18.3098,91.8627 C18.1298,91.4767 18.0988,91.3177 18.0188,91.1107 L17.8038,90.5007 L17.3718,89.2787 L17.1568,88.6677 L17.0498,88.3627 C17.0148,88.2577 16.9408,88.0317 16.9158,87.8637 C16.7728,87.1297 16.9288,86.3457 17.3118,85.7077 C17.6978,85.0737 18.3238,84.5637 19.0528,84.3517 C19.2138,84.2947 19.4558,84.2557 19.5618,84.2367 L19.8818,84.1887 L20.5228,84.0897 L23.0828,83.6967 L28.2278,82.9277 C31.6808,82.4497 35.1498,82.0857 38.6278,81.8347 C45.5848,81.3097 52.5818,81.3427 59.5458,81.7957 C63.0248,82.0217 66.5138,82.3757 69.9548,82.8177 C73.3108,83.2407 76.6928,83.4467 80.0728,83.4377 C83.4518,83.4247 86.8338,83.2387 90.1898,82.8137 C93.6318,82.3737 97.1208,82.0227 100.5998,81.7997 C107.5638,81.3617 114.5598,81.3127 121.5168,81.8427 C124.9948,82.0977 128.4638,82.4657 131.9148,82.9457 L137.0598,83.7217 L139.6188,84.1177 L140.2588,84.2167 L140.5788,84.2667 C140.6858,84.2847 140.9238,84.3237 141.0848,84.3787 C141.8048,84.5917 142.4278,85.0917 142.8138,85.7207 C143.1918,86.3537 143.3458,87.1317 143.2028,87.8587 C143.1788,88.0257 143.1048,88.2487 143.0698,88.3547 L142.9618,88.6587 L142.7458,89.2707 L142.3138,90.4907 L142.0968,91.1017 C142.0168,91.3087 141.9848,91.4677 141.8078,91.8497 C141.4888,92.4977 140.9248,93.0097 140.2638,93.2777 C139.9328,93.4107 139.5768,93.4827 139.2218,93.4907 L138.5358,93.4807 L137.2408,93.4567 C137.0868,93.4567 136.6518,93.4517 136.3308,93.3567 C135.9918,93.2697 135.6708,93.1177 135.3878,92.9167 C134.8198,92.5157 134.4088,91.9017 134.2548,91.2277 C134.1728,90.8377 134.1808,90.6557 134.1568,90.4417 L134.1018,89.7967 L133.8818,87.2157 L133.8558,86.9087 C133.8488,86.8417 133.8418,86.7737 133.8258,86.7077 C133.7978,86.5747 133.7578,86.4427 133.6948,86.3207 C133.5778,86.0727 133.3948,85.8517 133.1688,85.6877 C132.9268,85.5167 132.7148,85.4187 132.3528,85.3597 L131.0768,85.1327 C130.6058,85.0487 130.2908,84.5987 130.3748,84.1267 C130.4558,83.6697 130.8838,83.3597 131.3388,83.4177"/>
    <polygon fill="#231F20" points="141.028 86.285 140.418 91.481 135.389 92.021 134.231 85.103"/>
    <path fill="#231F20" d="M69.4277 102.1765C69.7827 100.3425 70.2957 98.5725 70.8657 96.8255 71.4287 95.0745 72.0737 93.3595 72.7537 91.6555 73.1127 90.8115 73.4497 89.9595 73.8237 89.1215 74.0907 88.5745 74.1157 88.1685 73.9967 87.6435 73.8597 87.1555 73.5497 86.6625 73.0617 86.3675 72.6997 86.0795 71.5747 85.8725 70.7397 85.5435L70.7057 85.5305C70.2237 85.3405 69.9877 84.7965 70.1767 84.3155 70.3187 83.9565 70.6567 83.7345 71.0207 83.7225 71.4837 83.7075 71.9447 83.7005 72.4027 83.7085 72.7937 83.6975 73.4917 83.7435 74.0847 83.9445 75.3017 84.3385 76.3467 85.2935 76.8787 86.5055 77.1497 87.1095 77.3137 87.7775 77.3097 88.4565 77.3217 89.1125 77.1377 89.8635 76.9427 90.3815 76.6287 91.2435 76.2807 92.0915 75.9507 92.9475 75.2567 94.6445 74.5307 96.3275 73.7177 97.9775 72.9147 99.6305 72.0537 101.2605 71.0357 102.8265 70.7707 103.2365 70.2237 103.3525 69.8137 103.0855 69.5027 102.8845 69.3617 102.5195 69.4277 102.1765M89.1084 102.8269C88.0764 101.2229 87.2004 99.5569 86.3824 97.8679 85.5564 96.1809 84.8144 94.4619 84.1054 92.7269L83.5934 91.4199 83.3374 90.7649 83.2124 90.4369 83.1524 90.2719 83.0734 90.0279C82.6324 88.7139 82.7844 87.1999 83.4794 86.0399 84.1414 84.8629 85.3214 84.0019 86.6004 83.7539 87.2964 83.6339 87.7154 83.6569 88.1864 83.6469 88.6574 83.6409 89.1294 83.6489 89.6024 83.6659 90.1204 83.6819 90.5254 84.1149 90.5084 84.6329 90.4954 85.0339 90.2284 85.3679 89.8694 85.4899 89.4174 85.6409 88.9624 85.7839 88.5044 85.9139 88.0524 86.0499 87.5344 86.1609 87.3254 86.2829 86.7884 86.5209 86.4224 86.9799 86.2294 87.4639 86.0544 87.9599 86.0404 88.4709 86.2494 88.9189L87.3024 91.4359C87.9974 93.1759 88.6574 94.9289 89.2354 96.7159 89.8204 98.4989 90.3464 100.3059 90.7174 102.1769 90.8124 102.6549 90.5014 103.1199 90.0224 103.2149 89.6574 103.2869 89.2994 103.1209 89.1084 102.8269"/>
    <path fill="#231F20" d="M89.1084,102.8269 C87.5014,99.7999 86.0494,96.7089 84.6574,93.5959 C83.9464,92.0449 83.2924,90.4699 82.6074,88.9079 C82.3404,88.2869 82.1124,88.0379 81.7804,87.8709 C81.4384,87.6849 80.7944,87.6019 80.0834,87.5969 C79.3894,87.5909 78.7744,87.6919 78.3994,87.8909 C78.0244,88.0859 77.7924,88.3489 77.5374,88.9079 C76.8624,90.4729 76.2044,92.0459 75.4994,93.5989 C74.1114,96.7159 72.6724,99.8109 71.0874,102.8469 C70.8494,103.2999 70.2904,103.4749 69.8374,103.2379 C69.4384,103.0299 69.2544,102.5719 69.3784,102.1559 C70.3444,98.8699 71.4604,95.6439 72.6264,92.4389 C73.1984,90.8319 73.8174,89.2429 74.4194,87.6479 C74.7714,86.6199 75.6494,85.4479 76.8084,84.8679 C77.9544,84.2699 79.0854,84.1639 80.0874,84.1479 C81.0664,84.1619 82.1744,84.2369 83.3594,84.8429 C83.9404,85.1449 84.4834,85.6049 84.8784,86.1139 C85.2764,86.6219 85.5374,87.1619 85.7274,87.6479 C86.3194,89.2469 86.9424,90.8339 87.5084,92.4429 C88.6694,95.6509 89.7724,98.8819 90.7174,102.1769 C90.8504,102.6399 90.5834,103.1229 90.1204,103.2559 C89.7164,103.3719 89.2974,103.1829 89.1084,102.8269"/>
    <path fill="#4D2A2D" d="M55.2275 107.3298L55.2275 107.3298C52.5545 107.5378 50.0965 105.8638 49.3095 103.3018 48.4295 100.4358 48.1955 97.4128 48.6225 94.4458 49.0035 91.7928 51.1745 89.7598 53.8465 89.5528 56.5185 89.3448 58.9775 91.0178 59.7635 93.5808 60.6435 96.4458 60.8785 99.4698 60.4525 102.4358 60.0705 105.0898 57.8995 107.1228 55.2275 107.3298M104.9179 107.3298L104.9179 107.3298C107.5909 107.5378 110.0489 105.8638 110.8359 103.3018 111.7159 100.4358 111.9499 97.4128 111.5229 94.4458 111.1419 91.7928 108.9709 89.7598 106.2989 89.5528 103.6269 89.3448 101.1679 91.0178 100.3819 93.5808 99.5019 96.4458 99.2669 99.4698 99.6929 102.4358 100.0749 105.0898 102.2459 107.1228 104.9179 107.3298M80.2968 150.4187L80.2968 150.4187C76.9108 150.4857 73.9308 148.1957 73.1238 144.9057 72.2228 141.2277 72.1468 137.3957 72.9008 133.6837 73.5748 130.3637 76.4618 127.9567 79.8488 127.8897 83.2348 127.8217 86.2148 130.1117 87.0218 133.4017 87.9228 137.0807 87.9988 140.9137 87.2438 144.6247 86.5698 147.9437 83.6838 150.3517 80.2968 150.4187"/>
  </g>
</svg>
