<svg xmlns="http://www.w3.org/2000/svg" xmlns:xlink="http://www.w3.org/1999/xlink" width="173" height="173" viewBox="0 0 173 173">
  <defs>
    <polygon id="john-hearts-a" points=".928 .975 83.218 .975 83.218 59 .928 59"/>
    <path id="john-hearts-c" d="M0.371,0.883 C0.371,0.883 8.685,27.621 23.161,27.621 L23.161,27.621 C38.746,27.621 45.95,0.883 45.95,0.883 L45.95,0.883 L0.371,0.883 Z"/>
    <path id="john-hearts-e" d="M0.371,0.883 C0.371,0.883 8.685,27.621 23.161,27.621 L23.161,27.621 C38.746,27.621 45.95,0.883 45.95,0.883 L45.95,0.883"/>
  </defs>
  <g fill="none" fill-rule="evenodd" transform="translate(6 2)">
    <g transform="translate(0 .097)">
      <g transform="translate(0 89)">
        <path fill="#FCC9AD" d="M34.5045,9.5463 L21.0795,2.2243 C9.7735,-3.9427 -3.2365,6.9403 0.8365,19.1583 C3.6265,27.5283 12.5145,32.2173 20.9975,29.7923 L34.5045,25.9343"/>
        <path stroke="#E06A62" stroke-linecap="round" stroke-linejoin="round" stroke-width="6.145" d="M34.5045,9.5463 L21.0795,2.2243 C9.7735,-3.9427 -3.2365,6.9403 0.8365,19.1583 C3.6265,27.5283 12.5145,32.2173 20.9975,29.7923 L34.5045,25.9343"/>
      </g>
      <path fill="#FCC9AD" d="M14.6344,98.5463 L28.3934,105.2293 C29.0374,105.7133 28.6964,106.7403 27.8894,106.7403 L26.3104,106.7403 C24.0474,106.7403 22.2134,108.5743 22.2134,110.8373"/>
      <path fill="#E06A62" d="M15.0836,97.6205 C16.3456,97.9415 17.5656,98.3465 18.7716,98.7795 C19.9816,99.2065 21.1686,99.6815 22.3476,100.1725 C23.5246,100.6645 24.6896,101.1825 25.8416,101.7305 C27.0056,102.2515 28.1276,102.8575 29.2726,103.4165 C29.3786,103.4685 29.4766,103.5265 29.5676,103.5935 L29.6016,103.6175 C30.1366,104.0055 30.5786,104.7045 30.6816,105.4215 C30.7956,106.1405 30.6266,106.8365 30.2496,107.4175 C29.8826,108.0015 29.2246,108.4595 28.5346,108.6045 C28.3606,108.6475 28.1986,108.6615 28.0326,108.6695 C27.8126,108.6785 27.8546,108.6695 27.7766,108.6695 L27.4606,108.6565 L26.2476,108.5805 C26.0096,108.5475 25.7736,108.5795 25.5346,108.6205 C25.0506,108.6945 24.5826,108.9565 24.1796,109.3255 C23.7856,109.7085 23.4726,110.2135 23.3066,110.8375 L23.2736,110.9605 C23.1176,111.5485 22.5156,111.8985 21.9276,111.7425 C21.4876,111.6255 21.1826,111.2595 21.1206,110.8375 C20.9656,109.7745 21.1706,108.5985 21.7656,107.6095 C22.3356,106.6075 23.2726,105.7955 24.3836,105.3255 C24.9396,105.0995 25.5406,104.9485 26.1466,104.9115 C26.6676,104.8725 27.0176,104.8455 27.4606,104.8235 L27.7766,104.8105 C27.9756,104.8065 27.7736,104.7955 27.6466,104.8245 C27.3646,104.8745 27.0816,105.0775 26.9346,105.2995 C26.7806,105.5245 26.7166,105.7835 26.7516,106.0865 C26.7846,106.3875 26.9876,106.7045 27.1836,106.8415 L27.5126,107.0415 C26.3646,106.4875 25.1936,105.9795 24.0656,105.3865 C22.9236,104.8205 21.7946,104.2255 20.6806,103.6035 C19.5656,102.9805 18.4586,102.3415 17.3756,101.6545 C16.2886,100.9745 15.2166,100.2655 14.1856,99.4725 C13.7246,99.1185 13.6386,98.4585 13.9916,97.9985 C14.2556,97.6555 14.6886,97.5205 15.0836,97.6205"/>
      <g transform="translate(125 89)">
        <path fill="#FCC9AD" d="M0.6413,9.5463 L14.0653,2.2243 C25.3713,-3.9427 38.3813,6.9403 34.3093,19.1583 C31.5193,27.5283 22.6303,32.2173 14.1473,29.7923 L0.6413,25.9343"/>
        <path stroke="#E06A62" stroke-linecap="round" stroke-linejoin="round" stroke-width="6.145" d="M0.6413,9.5463 L14.0653,2.2243 C25.3713,-3.9427 38.3813,6.9403 34.3093,19.1583 C31.5193,27.5283 22.6303,32.2173 14.1473,29.7923 L0.6413,25.9343"/>
      </g>
      <path fill="#FCC9AD" d="M145.5114,98.5463 L131.7524,105.2293 C131.1074,105.7133 131.4494,106.7403 132.2564,106.7403 L133.8344,106.7403 C136.0974,106.7403 137.9314,108.5743 137.9314,110.8373"/>
      <path fill="#E06A62" d="M145.9606,99.4721 C144.9296,100.2651 143.8566,100.9751 142.7696,101.6551 C141.6866,102.3411 140.5796,102.9811 139.4646,103.6041 C138.3506,104.2261 137.2226,104.8211 136.0796,105.3861 C134.9506,105.9801 133.7806,106.4881 132.6326,107.0411 L132.9616,106.8411 C133.1576,106.7041 133.3606,106.3871 133.3946,106.0861 C133.4296,105.7841 133.3646,105.5251 133.2106,105.2991 C133.0636,105.0771 132.7786,104.8741 132.4996,104.8251 C132.3706,104.7951 132.1696,104.8061 132.3686,104.8111 L132.6856,104.8241 C133.1286,104.8451 133.4776,104.8721 133.9986,104.9111 C134.6056,104.9491 135.2046,105.0991 135.7616,105.3261 C136.8726,105.7951 137.8096,106.6081 138.3806,107.6101 C138.9746,108.5981 139.1796,109.7751 139.0246,110.8371 C138.9376,111.4391 138.3786,111.8561 137.7766,111.7681 C137.3276,111.7021 136.9816,111.3741 136.8706,110.9611 L136.8386,110.8371 C136.6726,110.2131 136.3586,109.7081 135.9666,109.3261 C135.5626,108.9561 135.0956,108.6951 134.6096,108.6201 C134.3706,108.5791 134.1366,108.5471 133.8976,108.5801 L132.6856,108.6571 L132.3686,108.6691 C132.2896,108.6691 132.3316,108.6781 132.1126,108.6691 C131.9466,108.6611 131.7846,108.6481 131.6096,108.6051 C130.9216,108.4591 130.2626,108.0011 129.8966,107.4171 C129.5196,106.8361 129.3496,106.1401 129.4646,105.4211 C129.5656,104.7041 130.0086,104.0051 130.5426,103.6181 L130.5676,103.6001 C130.6616,103.5321 130.7716,103.4671 130.8726,103.4161 C132.0176,102.8581 133.1406,102.2511 134.3046,101.7311 C135.4546,101.1821 136.6206,100.6641 137.7986,100.1721 C138.9766,99.6811 140.1636,99.2061 141.3726,98.7801 C142.5796,98.3461 143.8006,97.9421 145.0616,97.6201 C145.6236,97.4781 146.1946,97.8181 146.3386,98.3801 C146.4446,98.7991 146.2826,99.2241 145.9606,99.4721"/>
      <path fill="#FCC9AD" d="M80.0729,0.975 L80.0729,0.975 C43.7399,0.975 16.2159,33.782 22.5299,69.562 L32.5809,126.515 C34.1389,135.351 39.0019,143.264 46.1789,148.648 L57.9499,157.475 C64.3319,162.262 72.0939,164.849 80.0729,164.849 C88.0509,164.849 95.8129,162.262 102.1959,157.475 L113.9659,148.648 C121.1439,143.264 126.0059,135.351 127.5649,126.515 L137.6159,69.562 C143.9289,33.782 116.4059,0.975 80.0729,0.975"/>
      <path stroke="#E06A62" stroke-linecap="round" stroke-linejoin="round" stroke-width="6.145" d="M80.0729,0.975 L80.0729,0.975 C43.7399,0.975 16.2159,33.782 22.5299,69.562 L32.5809,126.515 C34.1389,135.351 39.0019,143.264 46.1789,148.648 L57.9499,157.475 C64.3319,162.262 72.0939,164.849 80.0729,164.849 C88.0509,164.849 95.8129,162.262 102.1959,157.475 L113.9659,148.648 C121.1439,143.264 126.0059,135.351 127.5649,126.515 L137.6159,69.562 C143.9289,33.782 116.4059,0.975 80.0729,0.975 Z"/>
      <g transform="translate(38 112)">
        <mask id="john-hearts-b" fill="#fff">
          <use xlink:href="#john-hearts-a"/>
        </mask>
        <path fill="#E06A62" d="M76.4811,7.8383 L82.8531,34.5973 C84.1881,40.2073 81.7831,46.0423 76.8821,49.0823 C55.5611,62.3053 28.5881,62.3063 7.2671,49.0843 L7.2631,49.0813 C2.3621,46.0423 -0.0429,40.2073 1.2931,34.5973 L7.6641,7.8383 C8.6221,3.8153 12.2161,0.9753 16.3531,0.9753 L67.7931,0.9753 C71.9281,0.9753 75.5231,3.8153 76.4811,7.8383" mask="url(#john-hearts-b)"/>
      </g>
      <path fill="#E06A62" d="M63.9801 41.5776C61.2401 42.7636 58.6831 44.0396 56.3061 45.5566 53.9321 47.0716 51.7661 48.8366 49.7931 50.7886 47.8311 52.7556 46.0841 54.9346 44.5781 57.3106 43.0701 59.6916 41.8191 62.2546 40.6741 64.9946L40.6621 65.0256C40.3151 65.8546 39.3631 66.2456 38.5331 65.8996 37.9001 65.6356 37.5231 65.0136 37.5338657 64.3666 37.5981 61.0856 38.4411 57.8056 39.8331 54.7706 41.2221 51.7316 43.1731 48.9276 45.5531 46.5496 47.9241 44.1606 50.7441 42.2256 53.7851 40.8456 56.8221 39.4626 60.1091 38.6456 63.3901 38.6215607 64.2381 38.6156 64.9291 39.2976 64.9351485 40.1446 64.9401 40.7796 64.5581 41.3276 64.0111 41.5646L63.9801 41.5776zM96.7555 38.6214658C100.0355 38.6455 103.3235 39.4625 106.3605 40.8455 109.4015 42.2255 112.2205 44.1605 114.5915 46.5495 116.9715 48.9275 118.9235 51.7315 120.3125 54.7705 121.7045 57.8055 122.5465 61.0855 122.6105 64.3665 122.6285 65.2655 121.9155 66.0075 121.0175 66.0245 120.3315 66.0385 119.7355 65.6255 119.4845 65.0295L119.4705 64.9945C118.3255 62.2545 117.0755 59.6915 115.5675 57.3105 114.0605 54.9345 112.3145 52.7555 110.3515 50.7885 108.3785 48.8365 106.2125 47.0715 103.8385 45.5565 101.4615 44.0395 98.9055 42.7635 96.1635 41.5775L96.1355 41.5645C95.3575 41.2285 94.9995 40.3255 95.3355 39.5475 95.5875 38.9645 96.1575 38.6175 96.7555 38.6214658"/>
      <path fill="#FCC9AD" d="M71.0963,110.8373 C74.7943,118.2333 85.3503,118.2333 89.0483,110.8373"/>
      <path fill="#E06A62" d="M72.2204,110.2748 C73.4294,111.4998 74.6404,112.4028 75.9614,112.9928 C77.2734,113.5838 78.6674,113.8778 80.0724,113.8858 C81.4784,113.8798 82.8734,113.5808 84.1744,112.9768 C85.4914,112.3848 86.6814,111.4648 87.8554,110.2408 L87.9234,110.1688 C88.4474,109.6238 89.3124,109.6048 89.8594,110.1278 C90.2214,110.4748 90.3504,110.9778 90.2414,111.4338 C89.7434,113.5168 88.3804,115.4638 86.5334,116.8108 C84.6834,118.1578 82.3744,118.8838 80.0724,118.882816 C77.7714,118.8868 75.4604,118.1548 73.6204,116.7958 C71.7784,115.4478 70.4364,113.4828 69.9724,111.3988 C69.8184,110.7018 70.2574,110.0108 70.9544,109.8558 C71.4024,109.7558 71.8464,109.9018 72.1484,110.2028 L72.2204,110.2748 Z"/>
      <path fill="#4D2A2D" d="M57.3708,121.8832 C57.3708,121.8832 65.6848,148.6202 80.1608,148.6202 C95.7458,148.6202 102.9498,121.8832 102.9498,121.8832"/>
    </g>
    <g transform="translate(57 121.097)">
      <mask id="john-hearts-d" fill="#fff">
        <use xlink:href="#john-hearts-c"/>
      </mask>
      <path fill="#FF2E74" d="M46.0338,26.8373 C46.0338,26.8373 38.8298,17.9253 23.2438,17.9253 C8.7688,17.9253 0.4548,26.8373 0.4548,26.8373 L0.4548,37.3153 L45.9498,37.3153 L46.0338,26.8373 Z" mask="url(#john-hearts-d)"/>
      <mask id="john-hearts-f" fill="#fff">
        <use xlink:href="#john-hearts-e"/>
      </mask>
      <path fill="#F1F1F2" d="M71.5436,-5.1861 C71.5436,-5.1861 53.8936,8.3629 23.1606,8.3629 C-9.9294,8.3629 -25.2234,-5.1861 -25.2234,-5.1861" mask="url(#john-hearts-f)"/>
    </g>
    <g transform="translate(35 71.097)">
      <path stroke="#4D2A2D" stroke-linecap="round" stroke-width="4" d="M23.2936,51.9272 C23.2936,51.9272 31.2706,76.5382 45.1606,76.5382 C60.1146,76.5382 67.0266,51.9272 67.0266,51.9272"/>
      <path fill="#4D2A2D" d="M71.4049,50.7045 C69.5719,52.4455 67.0679,53.2655 64.7689,53.6105 C62.4409,53.9375 60.1729,53.9615 57.9669,53.8815 C55.7559,53.8205 53.5969,53.6735 51.4689,53.5555 C49.3399,53.4645 47.2399,53.3595 45.1599,53.3655 C40.9979,53.4165 36.7789,53.7845 32.3609,53.9545 C30.1499,53.9985 27.8789,53.9995 25.5509,53.6305 C23.2539,53.2545 20.7499,52.4005 18.9859,50.6155 C18.5839,50.2085 18.5879,49.5535 18.9939,49.1515 C19.3159,48.8335 19.7929,48.7685 20.1769,48.9575 L20.2509,48.9945 C23.6739,50.6805 27.8159,49.9875 32.0189,49.4985 C36.2359,48.9665 40.6479,48.3615 45.1599,48.4015 C49.6719,48.4285 54.0779,49.0125 58.2969,49.5715 C62.4889,50.0485 66.6969,50.6785 69.9999,48.9045 L70.0739,48.8645 C70.6319,48.5655 71.3259,48.7745 71.6259,49.3325 C71.8749,49.7975 71.7699,50.3575 71.4049,50.7045"/>
      <path fill="#4D2A2D" d="M68.4313 47.4721C69.0883 47.4341 69.6213 47.5641 70.1463 47.7901 70.6623 48.0141 71.1443 48.3241 71.5483 48.7221 72.3613 49.4981 72.9743 50.5801 72.9563 51.7701 72.9513 52.2181 72.5833 52.5761 72.1353 52.5701 71.9803 52.5681 71.8353 52.5221 71.7123 52.4451L71.6083 52.3781C71.1713 52.1001 70.8653 51.8141 70.5423 51.5451 70.2263 51.2771 69.9433 50.9981 69.6423 50.7291 69.3453 50.4561 69.0683 50.1571 68.7753 49.8441 68.4923 49.5331 68.1753 49.1851 67.9373 48.7751L67.8293 48.5901C67.6223 48.2351 67.7443 47.7791 68.0993 47.5721 68.2023 47.5111 68.3193 47.4791 68.4313 47.4721M21.9137 48.7748C21.6757 49.1848 21.3587 49.5328 21.0757 49.8438 20.7847 50.1568 20.5057 50.4568 20.2097 50.7288 19.9087 50.9988 19.6247 51.2768 19.3097 51.5458 18.9857 51.8138 18.6797 52.0998 18.2437 52.3788L18.1417 52.4428C17.7637 52.6838 17.2627 52.5728 17.0207 52.1948 16.9377 52.0638 16.8957 51.9158 16.8937 51.7698 16.8787 50.5808 17.4907 49.4988 18.3027 48.7218 18.7087 48.3238 19.1887 48.0138 19.7057 47.7908 20.2297 47.5638 20.7637 47.4338 21.4207 47.4718 21.8317 47.4958 22.1447 47.8478 22.1207 48.2578 22.1147 48.3788 22.0797 48.4898 22.0227 48.5878L21.9137 48.7748z"/>
      <path fill="#FF2E74" d="M25.154 36.8852L7.149 28.3632C1.833 25.8472-.91 19.6382 1.258 14.1702 3.633 8.1792 10.523 5.5262 16.256 8.2392L18.063 9.0942 18.727 7.6922C21.245 2.3762 27.454-.3658 32.921 1.8022 38.912 4.1772 41.565 11.0682 38.851 16.8002L30.199 35.0812C29.303 36.9732 27.045 37.7812 25.154 36.8852M63.4215 36.7885L81.4265 28.2665C86.7425 25.7495 89.4855 19.5405 87.3175 14.0735 84.9425 8.0815 78.0525 5.4285 72.3195 8.1425L70.5115 8.9965 69.8475 7.5955C67.3305 2.2795 61.1215-.4625 55.6535 1.7055 49.6625 4.0805 47.0105 10.9715 49.7245 16.7025L58.3765 34.9845C59.2715 36.8755 61.5295 37.6835 63.4215 36.7885"/>
    </g>
  </g>
</svg>
