<svg xmlns="http://www.w3.org/2000/svg" xmlns:xlink="http://www.w3.org/1999/xlink" width="173" height="173" viewBox="0 0 173 173">
  <defs>
    <polygon id="john-laughing-a" points=".928 .976 83.218 .976 83.218 59 .928 59"/>
    <path id="john-laughing-c" d="M0.371,0.883 C0.371,0.883 8.684,27.62 23.16,27.62 L23.16,27.62 C38.745,27.62 45.95,0.883 45.95,0.883 L45.95,0.883 L0.371,0.883 Z"/>
    <path id="john-laughing-e" d="M0.371,0.883 C0.371,0.883 8.684,27.62 23.16,27.62 L23.16,27.62 C38.745,27.62 45.95,0.883 45.95,0.883 L45.95,0.883"/>
  </defs>
  <g fill="none" fill-rule="evenodd" transform="translate(6 2)">
    <g transform="translate(0 .097)">
      <g transform="translate(0 89)">
        <path fill="#FCC9AD" d="M34.5041,9.5467 L21.0801,2.2247 C9.7741,-3.9423 -3.2359,6.9397 0.8361,19.1577 C3.6261,27.5287 12.5141,32.2167 20.9981,29.7927 L34.5041,25.9347"/>
        <path stroke="#E06A62" stroke-linecap="round" stroke-linejoin="round" stroke-width="6.145" d="M34.5041,9.5467 L21.0801,2.2247 C9.7741,-3.9423 -3.2359,6.9397 0.8361,19.1577 C3.6261,27.5287 12.5141,32.2167 20.9981,29.7927 L34.5041,25.9347"/>
      </g>
      <path fill="#FCC9AD" d="M14.634,98.5467 L28.393,105.2297 C29.038,105.7137 28.696,106.7397 27.889,106.7397 L26.311,106.7397 C24.048,106.7397 22.213,108.5737 22.213,110.8367"/>
      <path fill="#E06A62" d="M15.0842,97.6209 C16.3452,97.9409 17.5652,98.3459 18.7722,98.7789 C19.9812,99.2069 21.1682,99.6809 22.3472,100.1729 C23.5242,100.6639 24.6892,101.1829 25.8402,101.7309 C27.0052,102.2519 28.1272,102.8569 29.2722,103.4169 C29.3782,103.4689 29.4762,103.5269 29.5682,103.5929 L29.6022,103.6179 C30.1372,104.0059 30.5782,104.7049 30.6812,105.4219 C30.7952,106.1409 30.6262,106.8369 30.2492,107.4179 C29.8832,108.0009 29.2242,108.4599 28.5352,108.6039 C28.3602,108.6479 28.1982,108.6609 28.0322,108.6699 C27.8132,108.6789 27.8552,108.6699 27.7762,108.6689 L27.4602,108.6559 L26.2472,108.5799 C26.0092,108.5469 25.7732,108.5799 25.5352,108.6209 C25.0502,108.6949 24.5822,108.9559 24.1792,109.3259 C23.7852,109.7089 23.4732,110.2129 23.3072,110.8369 L23.2732,110.9609 C23.1172,111.5489 22.5152,111.8979 21.9272,111.7419 C21.4882,111.6259 21.1822,111.2599 21.1202,110.8369 C20.9652,109.7749 21.1702,108.5989 21.7652,107.6099 C22.3362,106.6079 23.2722,105.7959 24.3832,105.3249 C24.9392,105.0999 25.5402,104.9479 26.1472,104.9119 C26.6682,104.8719 27.0172,104.8449 27.4602,104.8239 L27.7762,104.8109 C27.9752,104.8069 27.7732,104.7949 27.6462,104.8249 C27.3652,104.8739 27.0822,105.0779 26.9342,105.2999 C26.7802,105.5249 26.7162,105.7839 26.7512,106.0869 C26.7842,106.3879 26.9872,106.7049 27.1842,106.8419 L27.5122,107.0419 C26.3642,106.4869 25.1932,105.9789 24.0652,105.3859 C22.9232,104.8209 21.7952,104.2249 20.6802,103.6029 C19.5652,102.9809 18.4592,102.3419 17.3752,101.6549 C16.2892,100.9749 15.2162,100.2659 14.1852,99.4729 C13.7252,99.1189 13.6382,98.4589 13.9912,97.9989 C14.2552,97.6559 14.6892,97.5209 15.0842,97.6209"/>
      <g transform="translate(125 89)">
        <path fill="#FCC9AD" d="M0.6408,9.5467 L14.0648,2.2247 C25.3718,-3.9423 38.3818,6.9397 34.3088,19.1577 C31.5188,27.5287 22.6308,32.2167 14.1468,29.7927 L0.6408,25.9347"/>
        <path stroke="#E06A62" stroke-linecap="round" stroke-linejoin="round" stroke-width="6.145" d="M0.6408,9.5467 L14.0648,2.2247 C25.3718,-3.9423 38.3818,6.9397 34.3088,19.1577 C31.5188,27.5287 22.6308,32.2167 14.1468,29.7927 L0.6408,25.9347"/>
      </g>
      <path fill="#FCC9AD" d="M145.511,98.5467 L131.752,105.2297 C131.108,105.7137 131.449,106.7397 132.256,106.7397 L133.835,106.7397 C136.098,106.7397 137.932,108.5737 137.932,110.8367"/>
      <path fill="#E06A62" d="M145.9602,99.4725 C144.9292,100.2655 143.8562,100.9745 142.7702,101.6555 C141.6862,102.3415 140.5792,102.9815 139.4652,103.6035 C138.3502,104.2255 137.2222,104.8215 136.0792,105.3855 C134.9502,105.9795 133.7802,106.4875 132.6332,107.0415 L132.9612,106.8415 C133.1572,106.7045 133.3602,106.3875 133.3942,106.0865 C133.4292,105.7845 133.3642,105.5255 133.2112,105.2995 C133.0632,105.0775 132.7792,104.8735 132.4992,104.8255 C132.3712,104.7945 132.1702,104.8065 132.3682,104.8115 L132.6852,104.8245 C133.1282,104.8445 133.4772,104.8715 133.9982,104.9115 C134.6052,104.9485 135.2052,105.0995 135.7622,105.3255 C136.8722,105.7955 137.8092,106.6085 138.3802,107.6105 C138.9742,108.5985 139.1802,109.7755 139.0242,110.8365 C138.9372,111.4395 138.3782,111.8555 137.7762,111.7675 C137.3272,111.7015 136.9812,111.3735 136.8712,110.9615 L136.8382,110.8365 C136.6722,110.2125 136.3592,109.7085 135.9662,109.3265 C135.5632,108.9555 135.0952,108.6955 134.6092,108.6205 C134.3712,108.5795 134.1362,108.5465 133.8972,108.5795 L132.6852,108.6565 L132.3682,108.6685 C132.2892,108.6695 132.3322,108.6785 132.1122,108.6695 C131.9462,108.6605 131.7842,108.6485 131.6092,108.6045 C130.9212,108.4595 130.2622,108.0005 129.8962,107.4175 C129.5192,106.8365 129.3502,106.1405 129.4642,105.4215 C129.5662,104.7045 130.0082,104.0055 130.5432,103.6185 L130.5672,103.5995 C130.6622,103.5315 130.7712,103.4675 130.8722,103.4165 C132.0182,102.8575 133.1402,102.2515 134.3042,101.7315 C135.4552,101.1825 136.6202,100.6635 137.7982,100.1725 C138.9772,99.6805 140.1632,99.2065 141.3732,98.7795 C142.5792,98.3455 143.8002,97.9415 145.0612,97.6205 C145.6232,97.4775 146.1952,97.8185 146.3382,98.3805 C146.4442,98.7995 146.2822,99.2245 145.9602,99.4725"/>
      <path fill="#FCC9AD" d="M80.0725,0.9754 L80.0725,0.9754 C43.7395,0.9754 16.2155,33.7824 22.5295,69.5624 L32.5805,126.5154 C34.1395,135.3514 39.0015,143.2634 46.1795,148.6474 L57.9495,157.4754 C64.3325,162.2614 72.0945,164.8494 80.0725,164.8494 C88.0515,164.8494 95.8135,162.2614 102.1955,157.4754 L113.9655,148.6474 C121.1435,143.2634 126.0065,135.3514 127.5645,126.5154 L137.6155,69.5624 C143.9295,33.7824 116.4055,0.9754 80.0725,0.9754"/>
      <path stroke="#E06A62" stroke-linecap="round" stroke-linejoin="round" stroke-width="6.145" d="M80.0725,0.9754 L80.0725,0.9754 C43.7395,0.9754 16.2155,33.7824 22.5295,69.5624 L32.5805,126.5154 C34.1395,135.3514 39.0015,143.2634 46.1795,148.6474 L57.9495,157.4754 C64.3325,162.2614 72.0945,164.8494 80.0725,164.8494 C88.0515,164.8494 95.8135,162.2614 102.1955,157.4754 L113.9655,148.6474 C121.1435,143.2634 126.0065,135.3514 127.5645,126.5154 L137.6155,69.5624 C143.9295,33.7824 116.4055,0.9754 80.0725,0.9754 Z"/>
      <g transform="translate(38 112)">
        <mask id="john-laughing-b" fill="#fff">
          <use xlink:href="#john-laughing-a"/>
        </mask>
        <path fill="#E06A62" d="M76.4817,7.8387 L82.8527,34.5977 C84.1887,40.2077 81.7837,46.0427 76.8817,49.0817 C55.5607,62.3057 28.5887,62.3067 7.2667,49.0837 L7.2637,49.0817 C2.3627,46.0427 -0.0423,40.2067 1.2927,34.5977 L7.6637,7.8387 C8.6217,3.8157 12.2167,0.9757 16.3527,0.9757 L67.7927,0.9757 C71.9277,0.9757 75.5237,3.8157 76.4817,7.8387" mask="url(#john-laughing-b)"/>
      </g>
      <path fill="#E06A62" d="M63.9807 54.9588C61.2397 56.1448 58.6837 57.4208 56.3067 58.9378 53.9317 60.4538 51.7657 62.2178 49.7927 64.1708 47.8307 66.1368 46.0847 68.3158 44.5777 70.6918 43.0697 73.0728 41.8187 75.6358 40.6737 78.3758L40.6617 78.4068C40.3147 79.2358 39.3627 79.6278 38.5337 79.2808 37.9007 79.0168 37.5227 78.3948 37.5334663 77.7478 37.5977 74.4668 38.4407 71.1868 39.8327 68.1528 41.2217 65.1138 43.1737 62.3088 45.5527 59.9308 47.9237 57.5418 50.7437 55.6068 53.7847 54.2268 56.8217 52.8448 60.1097 52.0268 63.3897 52.0027607 64.2377 51.9968 64.9287 52.6788 64.9357312 53.5258 64.9397 54.1608 64.5587 54.7088 64.0107 54.9458L63.9807 54.9588zM96.7551 52.0026807C100.0351 52.0267 103.3231 52.8447 106.3601 54.2267 109.4011 55.6067 112.2211 57.5417 114.5921 59.9307 116.9711 62.3087 118.9231 65.1137 120.3131 68.1527 121.7041 71.1867 122.5461 74.4667 122.6111 77.7477 122.6291 78.6467 121.9151 79.3887 121.0171 79.4067 120.3311 79.4197 119.7351 79.0067 119.4841 78.4107L119.4711 78.3757C118.3261 75.6357 117.0751 73.0727 115.5671 70.6917 114.0601 68.3157 112.3151 66.1367 110.3521 64.1707 108.3791 62.2177 106.2121 60.4537 103.8381 58.9377 101.4611 57.4207 98.9051 56.1447 96.1641 54.9587L96.1351 54.9467C95.3581 54.6097 94.9991 53.7067 95.3351 52.9287 95.5871 52.3467 96.1581 51.9997 96.7551 52.0026807"/>
      <path fill="#FCC9AD" d="M71.0969,110.8367 C74.7949,118.2337 85.3509,118.2337 89.0489,110.8367"/>
      <path fill="#E06A62" d="M72.2199,110.2752 C73.4289,111.4992 74.6409,112.4032 75.9609,112.9922 C77.2729,113.5842 78.6669,113.8782 80.0729,113.8862 C81.4779,113.8802 82.8729,113.5802 84.1739,112.9772 C85.4909,112.3852 86.6809,111.4652 87.8549,110.2402 L87.9239,110.1692 C88.4469,109.6232 89.3129,109.6042 89.8589,110.1282 C90.2209,110.4752 90.3499,110.9772 90.2419,111.4332 C89.7429,113.5162 88.3809,115.4642 86.5329,116.8102 C84.6829,118.1582 82.3739,118.883209 80.0729,118.883209 C77.7709,118.8862 75.4609,118.1552 73.6199,116.7962 C71.7779,115.4472 70.4359,113.4832 69.9729,111.3992 C69.8179,110.7022 70.2569,110.0102 70.9539,109.8562 C71.4019,109.7562 71.8459,109.9022 72.1489,110.2032 L72.2199,110.2752 Z"/>
      <path fill="#4D2A2D" d="M45.5451 98.3856C46.0391 97.5446 46.6641 96.8056 47.3101 96.0546 47.6841 95.7256 48.0701 95.4016 48.4721 95.0876 48.8841 94.7856 49.2581 94.4386 49.7561 94.2196 51.5661 93.1506 53.9451 92.5886 56.3261 92.8696 58.7261 93.1426 60.9241 94.3466 62.4281 95.8816 63.1751 96.6626 63.8231 97.4956 64.3011 98.4056 64.7921 99.3326 65.1401 100.1976 65.3571 101.3416 65.5521 102.3676 64.8781 103.3576 63.8521 103.5526 63.3991 103.6386 62.9541 103.5556 62.5801 103.3486L62.0291 103.0406C61.4331 102.7076 60.8131 102.1806 60.2091 101.8266 59.6201 101.4276 59.0371 101.0996 58.4901 100.8016 57.3811 100.2176 56.4071 99.9166 55.4471 99.8106 55.2141 99.7306 54.9531 99.7896 54.7051 99.7626 54.5791 99.7606 54.4541 99.7336 54.3241 99.7256L53.9191 99.7766C53.6421 99.8086 53.3701 99.7656 53.0691 99.8356 52.7731 99.9026 52.4671 99.9566 52.1481 99.9956 51.8291 100.0116 51.5001 100.1516 51.1621 100.2316 50.8221 100.3216 50.4701 100.3996 50.1031 100.4736 49.3771 100.7026 48.6431 100.9616 47.7711 101.1096L47.4611 101.1616C46.4471 101.3336 45.4871 100.6526 45.3161 99.6386 45.2391 99.1906 45.3321 98.7496 45.5451 98.3856M112.3899 101.1092C111.5179 100.9622 110.7839 100.7032 110.0579 100.4732 109.6919 100.3992 109.3379 100.3212 108.9989 100.2312 108.6609 100.1512 108.3309 100.0112 108.0129 99.9962 107.6939 99.9572 107.3889 99.9022 107.0909 99.8362 106.7899 99.7652 106.5189 99.8082 106.2429 99.7762L105.8369 99.7252C105.7069 99.7332 105.5809 99.7602 105.4549 99.7622 105.2079 99.7902 104.9469 99.7302 104.7129 99.8102 103.7529 99.9172 102.7799 100.2172 101.6699 100.8012 101.1229 101.0992 100.5409 101.4272 99.9519 101.8272 99.3479 102.1802 98.7279 102.7082 98.1319 103.0412L97.5819 103.3462C96.6699 103.8552 95.5189 103.5282 95.0099 102.6152 94.7859 102.2132 94.7249 101.7612 94.8039 101.3412 95.0219 100.1982 95.3689 99.3332 95.8609 98.4052 96.3369 97.4962 96.9859 96.6632 97.7329 95.8812 99.2379 94.3462 101.4349 93.1422 103.8339 92.8702 106.2149 92.5882 108.5939 93.1502 110.4059 94.2192 110.9039 94.4382 111.2769 94.7862 111.6889 95.0882 112.0899 95.4012 112.4769 95.7252 112.8509 96.0542 113.4959 96.8052 114.1209 97.5452 114.6159 98.3852 115.1359 99.2722 114.8389 100.4122 113.9529 100.9322 113.5609 101.1632 113.1189 101.2332 112.7019 101.1632L112.3899 101.1092zM57.3713 121.8836C57.3713 121.8836 65.6843 148.6196 80.1603 148.6196 95.7453 148.6196 102.9493 121.8836 102.9493 121.8836"/>
    </g>
    <g transform="translate(57 121.097)">
      <mask id="john-laughing-d" fill="#fff">
        <use xlink:href="#john-laughing-c"/>
      </mask>
      <path fill="#FF2E74" d="M46.0334,26.8377 C46.0334,26.8377 38.8294,17.9247 23.2444,17.9247 C8.7684,17.9247 0.4554,26.8377 0.4554,26.8377 L0.4554,37.3157 L45.9494,37.3157 L46.0334,26.8377 Z" mask="url(#john-laughing-d)"/>
      <mask id="john-laughing-f" fill="#fff">
        <use xlink:href="#john-laughing-e"/>
      </mask>
      <path fill="#F1F1F2" d="M71.5442,-5.1857 C71.5442,-5.1857 53.8932,8.3633 23.1602,8.3633 C-9.9298,8.3633 -25.2238,-5.1857 -25.2238,-5.1857" mask="url(#john-laughing-f)"/>
    </g>
    <g transform="translate(21 102.097)">
      <path stroke="#4D2A2D" stroke-linecap="round" stroke-width="4" d="M37.2932,20.9276 C37.2932,20.9276 45.2712,45.5386 59.1602,45.5386 C74.1152,45.5386 81.0272,20.9276 81.0272,20.9276"/>
      <path fill="#4D2A2D" d="M85.4045,19.7049 C83.5715,21.4459 81.0675,22.2659 78.7685,22.6099 C76.4415,22.9379 74.1725,22.9619 71.9665,22.8809 C69.7555,22.8199 67.5965,22.6739 65.4685,22.5559 C63.3395,22.4649 61.2405,22.3599 59.1605,22.3659 C54.9975,22.4159 50.7795,22.7839 46.3605,22.9539 C44.1495,22.9989 41.8795,22.9989 39.5505,22.6299 C37.2535,22.2539 34.7505,21.3999 32.9855,19.6149 C32.5835,19.2089 32.5875,18.5539 32.9935,18.1509 C33.3155,17.8329 33.7935,17.7689 34.1765,17.9579 L34.2505,17.9939 C37.6745,19.6809 41.8155,18.9869 46.0185,18.4979 C50.2355,17.9659 54.6475,17.3609 59.1605,17.4019 C63.6715,17.4279 68.0785,18.0129 72.2965,18.5709 C76.4885,19.0489 80.6975,19.6789 84.0005,17.9049 L84.0745,17.8649 C84.6315,17.5649 85.3255,17.7739 85.6255,18.3319 C85.8755,18.7969 85.7695,19.3579 85.4045,19.7049"/>
      <path fill="#4D2A2D" d="M82.4309 16.4725C83.0879 16.4345 83.6209 16.5645 84.1459 16.7905 84.6619 17.0145 85.1439 17.3245 85.5479 17.7225 86.3609 18.4985 86.9739 19.5795 86.9569 20.7705 86.9519 21.2185 86.5829 21.5765 86.1349 21.5705 85.9799 21.5685 85.8349 21.5225 85.7129 21.4455L85.6079 21.3775C85.1719 21.0995 84.8659 20.8135 84.5419 20.5455 84.2269 20.2765 83.9429 19.9975 83.6419 19.7285 83.3459 19.4565 83.0679 19.1565 82.7759 18.8445 82.4929 18.5335 82.1759 18.1845 81.9379 17.7745L81.8299 17.5905C81.6229 17.2355 81.7439 16.7795 82.0989 16.5725 82.2029 16.5115 82.3189 16.4795 82.4309 16.4725M35.9143 17.7742C35.6753 18.1842 35.3583 18.5332 35.0763 18.8442 34.7843 19.1562 34.5063 19.4572 34.2093 19.7282 33.9083 19.9982 33.6243 20.2762 33.3093 20.5452 32.9853 20.8132 32.6803 21.0992 32.2433 21.3782L32.1413 21.4432C31.7643 21.6832 31.2623 21.5732 31.0213 21.1952 30.9373 21.0642 30.8963 20.9152 30.8933 20.7702 30.8783 19.5802 31.4903 18.4992 32.3033 17.7222 32.7083 17.3242 33.1883 17.0142 33.7053 16.7912 34.2293 16.5642 34.7633 16.4342 35.4203 16.4722 35.8313 16.4962 36.1443 16.8482 36.1213 17.2582 36.1143 17.3782 36.0793 17.4902 36.0223 17.5872L35.9143 17.7742z"/>
      <path fill="#25A9E0" d="M12.5324,27.785 C9.6754,27.785 6.9794,26.662 4.9404,24.623 C2.2794,21.962 1.2064,18.185 2.0714,14.522 C2.9364,10.859 5.5844,7.962 9.1544,6.772 L22.5224,2.316 C22.9134,2.186 23.3144,2.12 23.7174,2.12 C24.9044,2.12 26.0354,2.704 26.7404,3.682 C27.4474,4.663 27.6324,5.887 27.2474,7.041 L22.7914,20.409 C21.3214,24.82 17.1984,27.785 12.5324,27.785"/>
      <path fill="#FFF" d="M23.716,0.8699 C23.18,0.8699 22.646,0.9569 22.128,1.1299 L8.759,5.5859 C4.775,6.9139 1.82,10.1479 0.855,14.2359 C-0.11,18.3239 1.087,22.5369 4.057,25.5069 C6.331,27.7819 9.342,29.0349 12.532,29.0349 C17.737,29.0349 22.337,25.7269 23.978,20.8049 L28.434,7.4349 C28.946,5.8959 28.699,4.2619 27.755,2.9509 C26.816,1.6479 25.306,0.8699 23.716,0.8699 M23.716,3.3699 C25.327,3.3699 26.62,4.9729 26.062,6.6449 L21.606,20.0139 C20.218,24.1779 16.416,26.5349 12.532,26.5349 C10.148,26.5349 7.731,25.6449 5.824,23.7389 C0.814,18.7289 2.828,10.1979 9.55,7.9579 L22.918,3.5019 C23.189,3.4119 23.456,3.3699 23.716,3.3699"/>
      <path fill="#25A9E0" d="M105.6125,27.785 C100.9465,27.785 96.8235,24.82 95.3535,20.409 L90.8975,7.041 C90.5125,5.887 90.6985,4.663 91.4045,3.682 C92.1105,2.704 93.2405,2.12 94.4285,2.12 C94.8305,2.12 95.2315,2.186 95.6225,2.316 L108.9905,6.772 C112.5605,7.962 115.2095,10.86 116.0745,14.523 C116.9385,18.186 115.8655,21.962 113.2045,24.623 C111.1655,26.662 108.4685,27.785 105.6125,27.785"/>
      <path fill="#FFF" d="M94.4289,0.8699 L94.4289,0.8699 C92.8389,0.8699 91.3289,1.6479 90.3899,2.9519 C89.4469,4.2629 89.1989,5.8959 89.7119,7.4349 L94.1669,20.8049 C95.8089,25.7269 100.4079,29.0349 105.6129,29.0349 C108.8039,29.0349 111.8139,27.7819 114.0889,25.5069 C117.0589,22.5369 118.2549,18.3229 117.2899,14.2349 C116.3249,10.1469 113.3699,6.9139 109.3859,5.5859 L96.0169,1.1299 C95.4989,0.9569 94.9649,0.8699 94.4289,0.8699 M94.4289,3.3699 C94.6889,3.3699 94.9559,3.4119 95.2269,3.5019 L108.5949,7.9579 C115.3179,10.1979 117.3309,18.7289 112.3219,23.7389 C110.4149,25.6449 107.9979,26.5349 105.6129,26.5349 C101.7299,26.5349 97.9269,24.1779 96.5389,20.0139 L92.0829,6.6449 C91.5259,4.9729 92.8189,3.3699 94.4289,3.3699"/>
    </g>
  </g>
</svg>
