<svg xmlns="http://www.w3.org/2000/svg" xmlns:xlink="http://www.w3.org/1999/xlink" width="173" height="173" viewBox="0 0 173 173">
  <defs>
    <polygon id="john-relieved-a" points=".928 .975 83.218 .975 83.218 59 .928 59"/>
  </defs>
  <g fill="none" fill-rule="evenodd" transform="translate(6 3)">
    <g transform="translate(0 88.097)">
      <path fill="#FCC9AD" d="M34.504,9.5463 L21.08,2.2243 C9.774,-3.9427 -3.236,6.9403 0.836,19.1583 C3.627,27.5283 12.515,32.2173 20.998,29.7923 L34.504,25.9343"/>
      <path stroke="#E06A62" stroke-linecap="round" stroke-linejoin="round" stroke-width="6.145" d="M34.504,9.5463 L21.08,2.2243 C9.774,-3.9427 -3.236,6.9403 0.836,19.1583 C3.627,27.5283 12.515,32.2173 20.998,29.7923 L34.504,25.9343"/>
    </g>
    <path fill="#FCC9AD" d="M14.6348,97.6433 L28.3928,104.3263 C29.0378,104.8103 28.6958,105.8373 27.8888,105.8373 L26.3108,105.8373 C24.0478,105.8373 22.2138,107.6713 22.2138,109.9343"/>
    <path fill="#E06A62" d="M15.084,96.7175 C16.346,97.0385 17.566,97.4435 18.772,97.8765 C19.982,98.3035 21.168,98.7785 22.347,99.2695 C23.525,99.7615 24.689,100.2795 25.841,100.8275 C27.005,101.3485 28.127,101.9545 29.273,102.5135 C29.378,102.5655 29.477,102.6235 29.568,102.6905 L29.602,102.7145 C30.137,103.1025 30.578,103.8015 30.682,104.5185 C30.795,105.2375 30.626,105.9335 30.25,106.5145 C29.883,107.0985 29.224,107.5565 28.535,107.7015 C28.361,107.7445 28.199,107.7585 28.032,107.7665 C27.813,107.7755 27.855,107.7665 27.776,107.7665 L27.461,107.7535 L26.247,107.6775 C26.009,107.6445 25.774,107.6765 25.535,107.7175 C25.051,107.7915 24.582,108.0535 24.179,108.4225 C23.786,108.8055 23.473,109.3105 23.307,109.9345 L23.273,110.0575 C23.117,110.6455 22.515,110.9955 21.928,110.8395 C21.488,110.7225 21.182,110.3565 21.12,109.9345 C20.965,108.8715 21.171,107.6955 21.766,106.7065 C22.336,105.7045 23.272,104.8925 24.383,104.4225 C24.94,104.1965 25.54,104.0455 26.147,104.0085 C26.668,103.9695 27.018,103.9425 27.461,103.9205 L27.776,103.9075 C27.975,103.9035 27.773,103.8925 27.646,103.9215 C27.365,103.9715 27.082,104.1745 26.934,104.3965 C26.78,104.6215 26.717,104.8805 26.752,105.1835 C26.784,105.4845 26.988,105.8015 27.184,105.9385 L27.512,106.1385 C26.365,105.5845 25.194,105.0765 24.065,104.4835 C22.923,103.9175 21.795,103.3225 20.68,102.7005 C19.565,102.0775 18.459,101.4385 17.375,100.7515 C16.289,100.0715 15.217,99.3625 14.185,98.5695 C13.725,98.2155 13.639,97.5555 13.992,97.0955 C14.256,96.7525 14.689,96.6175 15.084,96.7175"/>
    <g transform="translate(125 88.097)">
      <path fill="#FCC9AD" d="M0.6407,9.5463 L14.0657,2.2243 C25.3717,-3.9427 38.3817,6.9403 34.3087,19.1583 C31.5187,27.5283 22.6307,32.2173 14.1477,29.7923 L0.6407,25.9343"/>
      <path stroke="#E06A62" stroke-linecap="round" stroke-linejoin="round" stroke-width="6.145" d="M0.6407,9.5463 L14.0657,2.2243 C25.3717,-3.9427 38.3817,6.9403 34.3087,19.1583 C31.5187,27.5283 22.6307,32.2173 14.1477,29.7923 L0.6407,25.9343"/>
    </g>
    <path fill="#FCC9AD" d="M145.5108,97.6433 L131.7528,104.3263 C131.1078,104.8103 131.4488,105.8373 132.2558,105.8373 L133.8348,105.8373 C136.0978,105.8373 137.9318,107.6713 137.9318,109.9343"/>
    <path fill="#E06A62" d="M145.961,98.5691 C144.929,99.3621 143.857,100.0721 142.77,100.7521 C141.686,101.4381 140.58,102.0781 139.465,102.7011 C138.35,103.3231 137.223,103.9181 136.08,104.4831 C134.951,105.0771 133.781,105.5851 132.633,106.1381 L132.961,105.9381 C133.157,105.8011 133.361,105.4841 133.394,105.1831 C133.43,104.8811 133.365,104.6221 133.211,104.3961 C133.063,104.1741 132.779,103.9711 132.5,103.9221 C132.371,103.8921 132.17,103.9031 132.369,103.9081 L132.685,103.9211 C133.129,103.9421 133.477,103.9691 133.998,104.0081 C134.606,104.0461 135.205,104.1961 135.762,104.4231 C136.873,104.8921 137.809,105.7051 138.381,106.7071 C138.975,107.6951 139.18,108.8721 139.025,109.9341 C138.938,110.5361 138.379,110.9531 137.776,110.8651 C137.327,110.7991 136.982,110.4711 136.871,110.0581 L136.838,109.9341 C136.672,109.3101 136.359,108.8051 135.967,108.4231 C135.563,108.0531 135.095,107.7921 134.609,107.7171 C134.371,107.6761 134.137,107.6441 133.898,107.6771 L132.685,107.7541 L132.369,107.7661 C132.289,107.7661 132.332,107.7751 132.113,107.7661 C131.947,107.7581 131.785,107.7451 131.609,107.7021 C130.922,107.5561 130.262,107.0981 129.896,106.5141 C129.52,105.9331 129.35,105.2371 129.464,104.5181 C129.566,103.8011 130.009,103.1021 130.543,102.7151 L130.568,102.6971 C130.662,102.6291 130.772,102.5641 130.872,102.5131 C132.018,101.9551 133.141,101.3481 134.305,100.8281 C135.455,100.2791 136.62,99.7611 137.799,99.2691 C138.977,98.7781 140.164,98.3031 141.373,97.8771 C142.58,97.4431 143.8,97.0391 145.061,96.7171 C145.623,96.5751 146.195,96.9151 146.338,97.4771 C146.445,97.8961 146.283,98.3211 145.961,98.5691"/>
    <path fill="#FCC9AD" d="M80.0723,0.072 L80.0723,0.072 C43.7393,0.072 16.2163,32.879 22.5293,68.659 L32.5803,125.612 C34.1393,134.448 39.0013,142.361 46.1793,147.745 L57.9493,156.572 C64.3323,161.359 72.0943,163.946 80.0723,163.946 C88.0513,163.946 95.8133,161.359 102.1953,156.572 L113.9663,147.745 C121.1433,142.361 126.0063,134.448 127.5653,125.612 L137.6153,68.659 C143.9293,32.879 116.4053,0.072 80.0723,0.072"/>
    <path stroke="#E06A62" stroke-linecap="round" stroke-linejoin="round" stroke-width="6.145" d="M80.0723,0.072 L80.0723,0.072 C43.7393,0.072 16.2163,32.879 22.5293,68.659 L32.5803,125.612 C34.1393,134.448 39.0013,142.361 46.1793,147.745 L57.9493,156.572 C64.3323,161.359 72.0943,163.946 80.0723,163.946 C88.0513,163.946 95.8133,161.359 102.1953,156.572 L113.9663,147.745 C121.1433,142.361 126.0063,134.448 127.5653,125.612 L137.6153,68.659 C143.9293,32.879 116.4053,0.072 80.0723,0.072 Z"/>
    <g transform="translate(38 111.097)">
      <mask id="john-relieved-b" fill="#fff">
        <use xlink:href="#john-relieved-a"/>
      </mask>
      <path fill="#E06A62" d="M76.4815,7.8383 L82.8525,34.5973 C84.1885,40.2073 81.7835,46.0423 76.8825,49.0823 C55.5615,62.3053 28.5885,62.3063 7.2665,49.0843 L7.2635,49.0813 C2.3625,46.0423 -0.0425,40.2073 1.2935,34.5973 L7.6645,7.8383 C8.6225,3.8153 12.2165,0.9753 16.3525,0.9753 L67.7925,0.9753 C71.9285,0.9753 75.5235,3.8153 76.4815,7.8383" mask="url(#john-relieved-b)"/>
    </g>
    <path fill="#4D2A2D" d="M59.5362,118.8386 C60.3582,119.4366 61.1672,120.0486 61.9592,120.6766 C62.3632,120.9846 62.7472,121.3106 63.1402,121.6266 L63.7282,122.1046 C63.8892,122.2246 64.0312,122.3216 64.1882,122.4186 C64.7972,122.8156 65.4652,123.0916 66.1482,123.2256 C66.4982,123.2886 66.8102,123.3416 67.1872,123.3566 L68.6642,123.4636 C70.6722,123.5936 72.6672,123.8306 74.6692,124.0086 L80.6522,124.7336 C82.6402,125.0246 84.6332,125.2796 86.6182,125.6016 L87.3612,125.7246 C87.6242,125.7706 87.7672,125.7746 87.9762,125.8046 C88.3632,125.8466 88.7872,125.8816 89.1922,125.8776 C90.0122,125.8776 90.8392,125.8466 91.6592,125.7116 C93.2932,125.4296 94.9132,124.8876 96.4082,124.0366 C97.1822,123.6096 97.8282,123.1436 98.6012,122.5356 C99.3872,121.9016 100.1912,121.2846 101.0062,120.6786 C101.7232,120.1446 102.7362,120.2926 103.2692,121.0086 C103.7072,121.5966 103.6852,122.3846 103.2692,122.9426 C102.6632,123.7566 102.0472,124.5616 101.4122,125.3476 C100.7692,126.1646 99.9142,127.0416 99.0432,127.7726 C97.2482,129.2316 95.1292,130.3456 92.8462,130.9606 C91.7062,131.2746 90.5292,131.4776 89.3402,131.5306 C88.7422,131.5686 88.1592,131.5646 87.5452,131.5366 C87.2542,131.5186 86.8942,131.5046 86.6602,131.4776 L85.9102,131.4016 C83.9122,131.1926 81.9212,130.9176 79.9262,130.6796 L73.9612,129.8136 C71.9792,129.4606 69.9912,129.1676 68.0152,128.7686 L66.5062,128.4776 C65.8872,128.3656 65.2142,128.1976 64.6082,127.9526 C63.3792,127.4686 62.2612,126.7486 61.3222,125.8626 C61.0942,125.6406 60.8692,125.3956 60.6702,125.1626 L60.1932,124.5746 C59.8762,124.1816 59.5512,123.7966 59.2432,123.3936 C58.6152,122.6006 58.0032,121.7916 57.4042,120.9696 C56.9082,120.2886 57.0582,119.3336 57.7402,118.8386 C58.2892,118.4396 59.0152,118.4606 59.5362,118.8386"/>
    <path fill="#4D2A2D" d="M52.8926 120.9207C53.3186 119.8107 53.9276 119.0317 54.6836 118.3307 55.4316 117.6407 56.3086 117.0997 57.2576 116.7177 59.1346 115.9477 61.3696 115.7507 63.3146 116.6607 64.0466 117.0037 64.3636 117.8747 64.0206 118.6067 63.9016 118.8597 63.7186 119.0647 63.5006 119.2077L63.3146 119.3297C62.5346 119.8407 61.8356 120.1317 61.1586 120.4737 60.4776 120.7777 59.8186 121.0657 59.1466 121.3437 58.4746 121.6177 57.7856 121.8737 57.0526 122.1157 56.3266 122.3437 55.5216 122.6087 54.6696 122.6967L54.2866 122.7357C53.5486 122.8127 52.8886 122.2757 52.8126 121.5377 52.7886 121.3227 52.8226 121.1087 52.8926 120.9207M97.5918 118.6541C98.7258 118.2961 99.7138 118.2911 100.7338 118.4451 101.7388 118.6021 102.7078 118.9521 103.5978 119.4581 105.3668 120.4491 106.9118 122.0771 107.4078 124.1661 107.5958 124.9531 107.1098 125.7421 106.3238 125.9281 106.0508 125.9941 105.7778 125.9771 105.5288 125.8961L105.3188 125.8261C104.4338 125.5321 103.7718 125.1671 103.0808 124.8481 102.4198 124.5051 101.7848 124.1681 101.1498 123.8141 100.5168 123.4591 99.8878 123.0781 99.2418 122.6551 98.6128 122.2271 97.9038 121.7611 97.3058 121.1501L97.0358 120.8741C96.5178 120.3431 96.5278 119.4931 97.0578 118.9741 97.2118 118.8231 97.3998 118.7161 97.5918 118.6541"/>
    <path fill="#E06A62" d="M63.9805 54.0564C61.2395 55.2414 58.6835 56.5174 56.3065 58.0354 53.9325 59.5504 51.7655 61.3144 49.7925 63.2674 47.8305 65.2334 46.0845 67.4134 44.5775 69.7894 43.0705 72.1694 41.8185 74.7334 40.6735 77.4734L40.6615 77.5044C40.3145 78.3324 39.3625 78.7244 38.5335 78.3784 37.9005 78.1144 37.5235 77.4924 37.5333059 76.8454 37.5985 73.5634 38.4415 70.2844 39.8335 67.2494 41.2215 64.2104 43.1735 61.4054 45.5525 59.0274 47.9235 56.6384 50.7445 54.7034 53.7855 53.3234 56.8215 51.9414 60.1095 51.1234 63.3895 51.1003467 64.2375 51.0934 64.9295 51.7764 64.9355485 52.6234 64.9405 53.2584 64.5585 53.8054 64.0115 54.0434L63.9805 54.0564zM96.7559 51.1002658C100.0349 51.1233 103.3239 51.9413 106.3599 53.3233 109.4019 54.7043 112.2209 56.6383 114.5919 59.0273 116.9709 61.4053 118.9239 64.2103 120.3129 67.2493 121.7049 70.2843 122.5469 73.5633 122.6109 76.8453 122.6289 77.7443 121.9149 78.4863 121.0179 78.5033 120.3309 78.5173 119.7359 78.1043 119.4849 77.5073L119.4709 77.4733C118.3259 74.7333 117.0749 72.1693 115.5679 69.7893 114.0609 67.4133 112.3149 65.2333 110.3519 63.2673 108.3789 61.3143 106.2129 59.5503 103.8379 58.0353 101.4609 56.5173 98.9059 55.2413 96.1639 54.0563L96.1349 54.0433C95.3579 53.7073 94.9989 52.8033 95.3359 52.0263 95.5879 51.4433 96.1579 51.0963 96.7559 51.1002658"/>
    <path fill="#FCC9AD" d="M71.0967,109.9343 C74.7947,117.3303 85.3507,117.3303 89.0487,109.9343"/>
    <path fill="#E06A62" d="M72.2198,109.3718 C73.4298,110.5968 74.6408,111.4998 75.9608,112.0898 C77.2738,112.6808 78.6678,112.9748 80.0728,112.9828 C81.4778,112.9768 82.8728,112.6778 84.1738,112.0738 C85.4908,111.4818 86.6818,110.5618 87.8558,109.3378 L87.9238,109.2658 C88.4478,108.7208 89.3128,108.7018 89.8588,109.2248 C90.2208,109.5718 90.3498,110.0748 90.2418,110.5308 C89.7438,112.6138 88.3808,114.5608 86.5328,115.9078 C84.6828,117.2548 82.3738,117.9808 80.0728,117.979816 C77.7718,117.9838 75.4608,117.2518 73.6208,115.8928 C71.7778,114.5448 70.4358,112.5798 69.9728,110.4958 C69.8188,109.7988 70.2578,109.1078 70.9548,108.9528 C71.4028,108.8528 71.8468,108.9988 72.1488,109.2998 L72.2198,109.3718 Z"/>
    <path fill="#4D2A2D" d="M64.7979 99.5681C64.3049 100.4091 63.6789 101.1481 63.0329 101.8991 62.6599 102.2281 62.2729 102.5531 61.8709 102.8671 61.4589 103.1681 61.0859 103.5151 60.5879 103.7341 58.7769 104.8041 56.3979 105.3651 54.0179 105.0851 51.6169 104.8111 49.4199 103.6071 47.9149 102.0731 47.1679 101.2911 46.5199 100.4581 46.0429 99.5481 45.5509 98.6211 45.2039 97.7561 44.9859 96.6121 44.7909 95.5861 45.4649 94.5961 46.4909 94.4011 46.9439 94.3151 47.3899 94.3981 47.7639 94.6061L48.3149 94.9131C48.9099 95.2461 49.5309 95.7731 50.1339 96.1271 50.7239 96.5261 51.3059 96.8551 51.8539 97.1531 52.9629 97.7361 53.9359 98.0371 54.8969 98.1441 55.1289 98.2241 55.3909 98.1641 55.6389 98.1911 55.7639 98.1941 55.8899 98.2201 56.0199 98.2281L56.4249 98.1781C56.7009 98.1461 56.9729 98.1881 57.2739 98.1181 57.5709 98.0521 57.8769 97.9971 58.1949 97.9581 58.5139 97.9431 58.8439 97.8031 59.1819 97.7221 59.5209 97.6321 59.8739 97.5541 60.2399 97.4801 60.9669 97.2521 61.7009 96.9921 62.5719 96.8441L62.8829 96.7921C63.8959 96.6201 64.8559 97.3021 65.0269 98.3151 65.1039 98.7631 65.0119 99.2041 64.7979 99.5681M97.5723 96.8445C98.4453 96.9915 99.1793 97.2515 99.9043 97.4805 100.2713 97.5545 100.6253 97.6325 100.9643 97.7225 101.3013 97.8035 101.6313 97.9435 101.9493 97.9575 102.2693 97.9965 102.5743 98.0525 102.8713 98.1175 103.1723 98.1885 103.4433 98.1465 103.7203 98.1785L104.1263 98.2285C104.2563 98.2205 104.3813 98.1945 104.5083 98.1915 104.7553 98.1635 105.0153 98.2245 105.2503 98.1445 106.2093 98.0365 107.1823 97.7365 108.2923 97.1535 108.8403 96.8555 109.4223 96.5265 110.0113 96.1265 110.6143 95.7735 111.2343 95.2455 111.8313 94.9125L112.3813 94.6075C113.2933 94.0985 114.4443 94.4265 114.9533 95.3385 115.1763 95.7405 115.2383 96.1925 115.1583 96.6125 114.9413 97.7555 114.5933 98.6205 114.1023 99.5485 113.6253 100.4575 112.9763 101.2905 112.2303 102.0735 110.7253 103.6075 108.5273 104.8115 106.1293 105.0845 103.7483 105.3655 101.3693 104.8045 99.5573 103.7345 99.0583 103.5155 98.6853 103.1675 98.2733 102.8665 97.8733 102.5535 97.4853 102.2285 97.1113 101.8995 96.4673 101.1485 95.8413 100.4085 95.3473 99.5685 94.8273 98.6815 95.1233 97.5415 96.0103 97.0215 96.4023 96.7915 96.8433 96.7215 97.2603 96.7905L97.5723 96.8445z"/>
  </g>
</svg>
