<svg xmlns="http://www.w3.org/2000/svg" xmlns:xlink="http://www.w3.org/1999/xlink" width="630" height="301" viewBox="0 0 630 301">
  <defs>
    <linearGradient id="projects-c" x1="49.518%" x2="50%" y1="47.055%" y2="61.242%">
      <stop offset="0%" stop-color="#FFF"/>
      <stop offset="100%" stop-color="#FAFAFA"/>
    </linearGradient>
    <rect id="projects-a" width="630" height="300" x="0" y="0"/>
    <filter id="projects-b" width="100.2%" height="100.7%" x="-.1%" y="-.2%" filterUnits="objectBoundingBox">
      <feOffset dy="1" in="SourceAlpha" result="shadowOffsetOuter1"/>
      <feColorMatrix in="shadowOffsetOuter1" values="0 0 0 0 0.926972385   0 0 0 0 0.933707563   0 0 0 0 0.943585824  0 0 0 1 0"/>
    </filter>
  </defs>
  <g fill="none" fill-rule="evenodd">
    <mask id="projects-d" fill="#fff">
      <use xlink:href="#projects-a"/>
    </mask>
    <use fill="#000" filter="url(#projects-b)" xlink:href="#projects-a"/>
    <use fill="url(#projects-c)" xlink:href="#projects-a"/>
    <use fill="#FFF" xlink:href="#projects-a"/>
    <g mask="url(#projects-d)">
      <g transform="rotate(30 869.059 531.863)">
        <g transform="translate(2.4 391.2)">
          <rect width="230.4" height="56.8" x="82.4" y="6.4" fill="#E4E9F0" rx="5"/>
          <rect width="56.8" height="56.8" x="6.4" y="6.4" fill="#E4E9F0" rx="5"/>
          <rect width="168" height="238.4" x="6.4" y="143.2" fill="#E4E9F0" rx="5"/>
          <rect width="166.4" height="264.4" x=".8" y="137.6" fill="#FFF" stroke="#000" stroke-width="1.6" rx="5"/>
          <rect width="80" height="72" x="69.913" y="156.059" fill="#ECF4FF" rx="5" style="mix-blend-mode:multiply"/>
          <rect width="168" height="48" x="6.4" y="79.2" fill="#E4E9F0" rx="5"/>
          <rect width="166.4" height="46.4" x=".8" y="73.6" fill="#FFF" stroke="#000" stroke-width="1.6" rx="5"/>
          <line x1="107.134" x2="107.134" y1="91.746" y2="102.746" stroke="#000" stroke-linecap="round" stroke-linejoin="round" stroke-width="1.6"/>
          <rect width="230.4" height="55.2" x="75.2" y=".8" fill="#FFF" stroke="#000" stroke-width="1.6" rx="5"/>
          <g stroke="#000" stroke-linecap="round" stroke-linejoin="round" stroke-width="1.6" transform="translate(266.4 21.6)">
            <line x1=".256" x2="18.144" y1=".4" y2=".4"/>
            <line x1=".256" x2="18.144" y1="6.8" y2="6.8"/>
            <line x1=".256" x2="18.144" y1="13.2" y2="13.2"/>
          </g>
          <rect width="55.2" height="55.2" x=".8" y=".8" fill="#FFF" stroke="#000" stroke-width="1.6" rx="5"/>
          <rect width="214.4" height="149.6" x="98.4" y="188" fill="#E4E9F0" rx="5"/>
          <rect width="120.8" height="96" x="193.435" y="78.371" fill="#E4E9F0" rx="5"/>
          <rect width="119.2" height="94.4" x="188.429" y="72.429" fill="#FFF" stroke="#000" stroke-width="1.6" rx="5"/>
          <rect width="19" height="72" x="198.673" y="83.961" fill="#ECF4FF" rx="5" style="mix-blend-mode:multiply"/>
          <rect width="212.8" height="148" x="92.8" y="182.4" fill="#FFF" stroke="#000" stroke-width="1.6" rx="5"/>
          <rect width="187" height="104" x="49.54" y="249.733" fill="#E06B63" opacity=".15" rx="5" style="mix-blend-mode:multiply"/>
          <line x1="88.366" x2="88.366" y1="215.434" y2="314.634" stroke="#000" stroke-dasharray="4 8" stroke-linecap="round" stroke-linejoin="round" stroke-width="1.6"/>
          <g stroke="#000" stroke-width="1.6" transform="translate(8.8 144.8)">
            <circle cx="2.8" cy="2.8" r="2.8"/>
            <circle cx="11.6" cy="2.8" r="2.8"/>
            <circle cx="20.4" cy="2.8" r="2.8"/>
          </g>
          <g transform="translate(81.6 262.4)">
            <rect width="89.6" height="28" x="5.323" y="5.835" fill="#E9D0CE" rx="5"/>
            <rect width="88" height="26.4" x=".8" y=".8" fill="#FFF" stroke="#000" stroke-width="1.6" rx="5"/>
            <path fill="#0E0E0E" fill-rule="nonzero" d="M12.2800002,19.2000003 L14.4400002,19.2000003 L14.4400002,9.40800014 L12.2800002,9.40800014 L12.2800002,19.2000003 Z M23.6704004,19.3728003 C26.3776004,19.3728003 27.6304004,18.1200003 27.6304004,15.3840002 L27.6304004,13.2240002 C27.6304004,10.4880002 26.3776004,9.23520014 23.6704004,9.23520014 C20.9632003,9.23520014 19.7104003,10.4880002 19.7104003,13.2240002 L19.7104003,15.3840002 C19.7104003,18.1200003 20.9632003,19.3728003 23.6704004,19.3728003 Z M23.6704004,17.5152003 C22.3744003,17.5152003 21.8704003,16.8960003 21.8704003,15.3552002 L21.8704003,13.2528002 C21.8704003,11.7120002 22.3744003,11.0928002 23.6704004,11.0928002 C24.9664004,11.0928002 25.4704004,11.7120002 25.4704004,13.2528002 L25.4704004,15.3552002 C25.4704004,16.8960003 24.9664004,17.5152003 23.6704004,17.5152003 Z M32.9008005,19.2000003 L35.0608005,19.2000003 L35.0608005,9.40800014 L32.9008005,9.40800014 L32.9008005,19.2000003 Z M44.2912007,19.3728003 C46.9984007,19.3728003 48.2512007,18.1200003 48.2512007,15.3840002 L48.2512007,13.2240002 C48.2512007,10.4880002 46.9984007,9.23520014 44.2912007,9.23520014 C41.5840006,9.23520014 40.3312006,10.4880002 40.3312006,13.2240002 L40.3312006,15.3840002 C40.3312006,18.1200003 41.5840006,19.3728003 44.2912007,19.3728003 Z M44.2912007,17.5152003 C42.9952006,17.5152003 42.4912006,16.8960003 42.4912006,15.3552002 L42.4912006,13.2528002 C42.4912006,11.7120002 42.9952006,11.0928002 44.2912007,11.0928002 C45.5872007,11.0928002 46.0912007,11.7120002 46.0912007,13.2528002 L46.0912007,15.3552002 C46.0912007,16.8960003 45.5872007,17.5152003 44.2912007,17.5152003 Z M53.5216008,19.2000003 L55.6816008,19.2000003 L55.6816008,9.40800014 L53.5216008,9.40800014 L53.5216008,19.2000003 Z M64.912001,19.3728003 C67.619201,19.3728003 68.872001,18.1200003 68.872001,15.3840002 L68.872001,13.2240002 C68.872001,10.4880002 67.619201,9.23520014 64.912001,9.23520014 C62.2048009,9.23520014 60.9520009,10.4880002 60.9520009,13.2240002 L60.9520009,15.3840002 C60.9520009,18.1200003 62.2048009,19.3728003 64.912001,19.3728003 Z M64.912001,17.5152003 C63.6160009,17.5152003 63.1120009,16.8960003 63.1120009,15.3552002 L63.1120009,13.2528002 C63.1120009,11.7120002 63.6160009,11.0928002 64.912001,11.0928002 C66.208001,11.0928002 66.712001,11.7120002 66.712001,13.2528002 L66.712001,15.3552002 C66.712001,16.8960003 66.208001,17.5152003 64.912001,17.5152003 Z M74.1424011,19.2000003 L74.1424011,9.40800014 L76.3024011,9.40800014 L76.3024011,19.2000003 L74.1424011,19.2000003 Z"/>
          </g>
        </g>
        <g stroke="#000" stroke-linecap="round" stroke-linejoin="round" stroke-width="1.6" transform="translate(296 581.6)">
          <line x1=".48" x2="4.32" y1=".48" y2="4.32"/>
          <line x1=".48" x2="4.32" y1=".48" y2="4.32" transform="matrix(-1 0 0 1 4.8 0)"/>
        </g>
        <rect width="120.8" height="272" x="331.2" y="356" fill="#E4E9F0" rx="5"/>
        <rect width="119.2" height="273.6" x="326.4" y="348" fill="#FFF" stroke="#000" stroke-width="1.6" rx="5"/>
        <rect width="148" height="277" x="357.667" y="384.221" fill="#ECF4FF" rx="5" style="mix-blend-mode:multiply"/>
        <path fill="#000" fill-rule="nonzero" d="M417.614436,419 L417.461332,417.009091 L419.159404,418.127273 L419.897092,416.886364 L417.892809,415.986364 L419.897092,415.1 L419.159404,413.859091 L417.461332,414.990909 L417.614436,413 L416.139062,413 L416.278248,415.004545 L414.580175,413.872727 L413.856406,415.113636 L415.818933,416 L413.856406,416.872727 L414.580175,418.1 L416.278248,416.981818 L416.139062,419 L417.614436,419 Z M424.573751,419 L424.420646,417.009091 L426.118719,418.127273 L426.856406,416.886364 L424.852124,415.986364 L426.856406,415.1 L426.118719,413.859091 L424.420646,414.990909 L424.573751,413 L423.098376,413 L423.237563,415.004545 L421.53949,413.872727 L420.815721,415.113636 L422.778248,416 L420.815721,416.872727 L421.53949,418.1 L423.237563,416.981818 L423.098376,419 L424.573751,419 Z"/>
        <path fill="#000" d="M344.677136,361.819233 L339.77311,366.416756 L339.77311,366.416756 L339.719691,366.467288 C339.318474,366.846818 339.300893,367.479739 339.680423,367.880956 C339.693146,367.894407 339.706241,367.907501 339.719691,367.920225 L339.77311,367.970756 L339.77311,367.970756 L344.67723,372.568369 C345.107862,372.972086 345.78397,372.951238 346.18891,372.521756 C346.592514,372.093691 346.572685,371.41949 346.14462,371.015886 C346.143981,371.015283 346.143341,371.014681 346.142701,371.01408 L342.070899,367.193934 L342.070899,367.193934 L346.142606,363.373876 C346.571769,362.971237 346.593271,362.296929 346.190632,361.867766 C346.190059,361.867154 346.189485,361.866544 346.18891,361.865934 C345.783983,361.436368 345.107806,361.41548 344.677136,361.819233 Z"/>
        <rect width="120.8" height="275.2" x="473.907" y="354.772" fill="#E4E9F0" rx="5"/>
        <rect width="119.2" height="273.6" x="467.574" y="350" fill="#FFF" stroke="#000" stroke-width="1.6" rx="5"/>
        <rect width="120.8" height="224" x="8" y="157.6" fill="#E4E9F0" rx="5"/>
        <rect width="120.8" height="64.8" x="147.2" y="316.8" fill="#E4E9F0" rx="5"/>
        <rect width="168" height="64.8" x="147.2" y="233.6" fill="#E4E9F0" rx="5"/>
        <rect width="28" height="64.8" x="286.4" y="316.8" fill="#E4E9F0" rx="5"/>
        <rect width="263" height="277" x="330.402" y="59.032" fill="#E4E9F0" rx="5"/>
        <rect width="119.2" height="222.4" x="2.4" y="152" fill="#FFF" stroke="#000" stroke-width="1.6" rx="5"/>
        <rect width="119.2" height="65.6" x="141.6" y="308.8" fill="#FFF" stroke="#000" stroke-width="1.6" rx="5"/>
        <rect width="94.4" height="44.8" x="154" y="319.2" fill="#ECF4FF" stroke="#000" stroke-width="1.6" rx="5"/>
        <rect width="166.4" height="65.6" x="141.6" y="225.6" fill="#FFF" stroke="#000" stroke-width="1.6" rx="5"/>
        <path fill="#000" fill-rule="nonzero" d="M248.000004,280.274475 L249.620193,280.274475 L249.620193,272.929618 L248.000004,272.929618 L248.000004,280.274475 Z M256.5438,280.40409 C258.574437,280.40409 259.514147,279.464381 259.514147,277.412141 L259.514147,275.791952 C259.514147,273.739713 258.574437,272.800003 256.5438,272.800003 C254.513163,272.800003 253.573454,273.739713 253.573454,275.791952 L253.573454,277.412141 C253.573454,279.464381 254.513163,280.40409 256.5438,280.40409 Z M256.5438,279.010728 C255.571687,279.010728 255.193643,278.546274 255.193643,277.390539 L255.193643,275.813555 C255.193643,274.65782 255.571687,274.193366 256.5438,274.193366 C257.515914,274.193366 257.893958,274.65782 257.893958,275.813555 L257.893958,277.390539 C257.893958,278.546274 257.515914,279.010728 256.5438,279.010728 Z M263.467408,280.274475 L265.087597,280.274475 L265.087597,272.929618 L263.467408,272.929618 L263.467408,280.274475 Z M272.011204,280.40409 C274.041841,280.40409 274.98155,279.464381 274.98155,277.412141 L274.98155,275.791952 C274.98155,273.739713 274.041841,272.800003 272.011204,272.800003 C269.980567,272.800003 269.040858,273.739713 269.040858,275.791952 L269.040858,277.412141 C269.040858,279.464381 269.980567,280.40409 272.011204,280.40409 Z M272.011204,279.010728 C271.039091,279.010728 270.661047,278.546274 270.661047,277.390539 L270.661047,275.813555 C270.661047,274.65782 271.039091,274.193366 272.011204,274.193366 C272.983317,274.193366 273.361362,274.65782 273.361362,275.813555 L273.361362,277.390539 C273.361362,278.546274 272.983317,279.010728 272.011204,279.010728 Z M278.934812,280.274475 L280.555,280.274475 L280.555,272.929618 L278.934812,272.929618 L278.934812,280.274475 Z M287.478608,280.40409 C289.509245,280.40409 290.448954,279.464381 290.448954,277.412141 L290.448954,275.791952 C290.448954,273.739713 289.509245,272.800003 287.478608,272.800003 C285.447971,272.800003 284.508262,273.739713 284.508262,275.791952 L284.508262,277.412141 C284.508262,279.464381 285.447971,280.40409 287.478608,280.40409 Z M287.478608,279.010728 C286.506495,279.010728 286.128451,278.546274 286.128451,277.390539 L286.128451,275.813555 C286.128451,274.65782 286.506495,274.193366 287.478608,274.193366 C288.450721,274.193366 288.828765,274.65782 288.828765,275.813555 L288.828765,277.390539 C288.828765,278.546274 288.450721,279.010728 287.478608,279.010728 Z M294.402215,280.274475 L294.402215,272.929618 L296.402215,272.929618 L296.402215,280.274475 L294.402215,280.274475 Z"/>
        <rect width="27.2" height="65.6" x="280.8" y="308.8" fill="#FFF" stroke="#000" stroke-width="1.6" rx="5"/>
        <rect width="10.4" height="26.4" x="289.1" y="328.877" fill="#FFF" stroke="#000" stroke-width="1.6" rx="5.2"/>
        <rect width="10.4" height="12.4" x="289.1" y="342.877" fill="#000" stroke="#000" stroke-width="1.6" rx="5.2"/>
        <g fill="#000" fill-rule="nonzero" stroke="#000" stroke-width=".5" transform="translate(92.8 347.2)">
          <path d="M16.8301836,7.11351677 L15.5468502,6.9667071 C15.1988102,6.93018344 14.8865569,6.6917071 14.7404769,6.32504043 C14.5936672,5.97700042 14.6488102,5.59170708 14.8686672,5.31670708 L15.6936672,4.30837373 C15.9321472,4.01474706 15.9135206,3.57504039 15.6385242,3.30004038 L14.3000442,1.96156036 C14.0250442,1.68656036 13.6032309,1.66793369 13.2917109,1.90641736 L12.2833775,2.73141737 C12.0083775,2.95127071 11.6230842,3.00641738 11.2564175,2.84170338 C10.9083775,2.69489371 10.6698975,2.38337004 10.6333775,2.05322336 L10.4865678,0.751263345 C10.4500442,0.365970005 10.1199012,0.0909700014 9.73460781,0.0909700014 L7.84682445,0.0916861014 C7.46153111,0.0916861014 7.15001111,0.385312772 7.09486444,0.751979445 L6.9666741,2.05322446 C6.93015044,2.40126447 6.6916741,2.71351781 6.32500743,2.85959781 C5.97696742,3.00640748 5.59167408,2.95126448 5.31667408,2.73140747 L4.30834073,1.92503413 C4.01471406,1.68655413 3.57500739,1.70518079 3.30000738,1.98017713 L1.96152736,3.31865715 C1.68652736,3.59365715 1.66790069,4.01547049 1.90638436,4.3269905 L2.73138437,5.33532385 C2.95123771,5.61032385 3.00638438,5.99561719 2.84167038,6.36228386 C2.69486071,6.71032387 2.4019637,6.94880387 2.03529703,6.98532387 L0.733337011,7.13213354 C0.348043672,7.16865721 0.0730436678,7.49880021 0.0730436678,7.88409355 L0.0730436678,9.79039358 C0.0730436678,10.1756869 0.366670339,10.4872069 0.751230345,10.5423536 L2.05319036,10.6891633 C2.40123037,10.7256869 2.71348371,10.9641633 2.85956371,11.3308299 C3.00637338,11.6788699 2.95123038,12.0641633 2.73137337,12.3391633 L1.90637336,13.3474966 C1.66789336,13.6411233 1.68652003,14.08083 1.96151636,14.35583 L3.29999638,15.69431 C3.57499639,15.96931 3.99680973,15.9879367 4.30832973,15.749453 L5.31666308,14.924453 C5.59166308,14.7045997 5.97695642,14.649453 6.34362309,14.814167 C6.6916631,14.9609767 6.9301431,15.2538737 6.9666631,15.6205403 L7.11347277,16.9225004 C7.14999644,17.3077937 7.48013944,17.5827937 7.86543278,17.5827937 L9.77173281,17.5827937 C10.1570262,17.5827937 10.4685462,17.289167 10.5236928,16.9225004 L10.6705025,15.6205403 C10.7070262,15.2725003 10.9455025,14.960247 11.3121692,14.814167 C11.6602092,14.6673573 12.0455025,14.7225003 12.3205025,14.9423573 L13.3288359,15.7673573 C13.6224625,16.0058373 14.0621692,15.9872107 14.3371692,15.7122143 L15.6756492,14.3737343 C15.9506492,14.0987343 15.9692759,13.676921 15.7307922,13.365401 L14.8685572,12.2833126 C14.6487039,12.0083126 14.5935572,11.6230193 14.7582712,11.2563526 C14.9050809,10.9083126 15.1979779,10.6698326 15.5646446,10.6333126 L16.8666046,10.4865029 C17.2518979,10.4499793 17.5268979,10.1198363 17.5268979,9.73454291 L17.5268979,7.84675955 C17.5082786,7.46146621 17.2146629,7.14994621 16.8300846,7.11342621 L16.8301836,7.11351677 Z M16.7936636,9.75315015 L15.4551799,9.93648348 C14.8500332,10.0095308 14.3186599,10.4134435 14.0615532,11.0178568 C13.8230732,11.6043768 13.9147435,12.2646702 14.3000332,12.7408969 L15.1250332,13.8043769 L13.7314065,15.1428569 L12.7230732,14.2999452 C12.2461132,13.9146519 11.5865532,13.8229852 10.9814065,14.0800919 C10.3948865,14.3185719 9.99169982,14.8499452 9.91792648,15.4550919 L9.73459315,16.7935719 L7.79089312,16.7570482 L7.64408345,15.4550882 C7.57103611,14.8499416 7.16712344,14.3185682 6.5627101,14.0614615 C6.34285676,13.9697949 6.12300342,13.9332712 5.88452342,13.9332712 C5.49923008,13.9332712 5.13256341,14.0614615 4.83967007,14.2999379 L3.77619006,15.1249379 L2.43771004,13.7313112 L3.26271005,12.7229779 C3.64800339,12.2460178 3.73967006,11.5864578 3.48256339,10.9813112 C3.24408338,10.3947912 2.71271004,9.99160448 2.10756336,9.91783115 L0.769083345,9.73449781 L0.805607012,7.79079778 L2.10756703,7.64398811 C2.71271371,7.57094078 3.24408705,7.16702811 3.50119372,6.56261476 C3.73967372,5.97609476 3.64800339,5.31580141 3.26271372,4.83957474 L2.4377137,3.77609472 L3.83134039,2.4376147 L4.83967374,3.26261472 C5.31663375,3.64790805 5.97619376,3.73957472 6.58134043,3.48246805 C7.16786044,3.24398805 7.57104711,2.71261471 7.64482045,2.10746803 L7.82815378,0.787614678 L9.77185381,0.824138346 L9.91866348,2.12609837 C9.99171082,2.73124504 10.3956235,3.26261838 11.0000368,3.51972505 C11.5865568,3.75820506 12.2468502,3.68443905 12.7230769,3.29987172 L13.7865569,2.49349837 L15.1250369,3.88712506 L14.3000369,4.89545841 C13.9147435,5.37241841 13.8230769,6.03197842 14.0801835,6.6371251 C14.3186635,7.22364511 14.8500369,7.62683178 15.4551836,7.70060511 L16.7936636,7.88393845 L16.7936636,9.75315015 Z"/>
          <path d="M8.80000013,5.53648342 C7.00318677,5.53648342 5.53648342,7.0031501 5.53648342,8.80000013 C5.53648342,10.5968502 7.0031501,12.0635168 8.80000013,12.0635168 C10.5968502,12.0635168 12.0635168,10.5968502 12.0635168,8.80000013 C12.0635168,7.0031501 10.5968502,5.53648342 8.80000013,5.53648342 Z M8.80000013,11.3479668 C7.38848011,11.3479668 6.25203343,10.1928202 6.25203343,8.80000013 C6.25203343,7.40637344 7.38855344,6.25203343 8.80000013,6.25203343 C10.2114468,6.25203343 11.3479668,7.40718011 11.3479668,8.80000013 C11.3479668,10.1936268 10.2114468,11.3479668 8.80000013,11.3479668 Z"/>
        </g>
        <rect width="259.4" height="263.4" x="326.168" y="65.798" fill="#FFF" stroke="#000" stroke-width="1.6" rx="5"/>
        <rect width="60" height="2" x="348.062" y="305.588" fill="#000" rx="1"/>
        <rect width="16" height="2" x="348.26" y="295.769" fill="#000" rx="1"/>
        <rect width="25" height="2" x="371.603" y="296.014" fill="#000" rx="1"/>
        <g transform="translate(272.898 498.588)">
          <path fill="#FFF" stroke="#000" stroke-width="1.6" d="M19.6000003,5.60000008 L19.6000003,43.2000006 C19.3811011,45.6481774 15.3464234,47.6000007 10.4000002,47.6000007 C5.31898038,47.6000007 1.20000002,45.5405105 1.20000002,43.0000006 C1.20000002,42.9745955 1.20041192,42.9492385 1.20123256,42.9239312 L1.20000002,5.60000008 L19.6000003,5.60000008 Z"/>
          <polygon fill="#000" points=".8 0 3.8 0 3.8 37.77 .8 40.636" transform="translate(16.2 5.6)"/>
          <ellipse cx="10.4" cy="5" fill="#FFF" stroke="#000" stroke-width="1.6" rx="9.2" ry="4.2"/>
        </g>
        <path stroke="#000" stroke-linecap="round" stroke-linejoin="round" stroke-width="1.6" d="M0.830558984,0.331773008 C5.2293895,0.331773008 5.2293895,11.5317732 9.63055912,11.5317732 C14.0293896,11.5317732 14.0293896,0.331773008 18.4305592,0.331773008 C22.8293898,0.331773008 22.8293898,11.5317732 27.2305594,11.5317732 C31.6293899,11.5317732 31.6293899,0.331773008 36.0305595,0.331773008 C40.42939,0.331773008 40.42939,11.5317732 44.830559,11.5317732" transform="translate(57.6 482.4)"/>
        <polyline stroke="#000" stroke-width="1.6" points="175.532 320.771 172.139 353.098 152.532 361.771" transform="rotate(-7 164.032 341.271)"/>
        <line x1="173.63" x2="248.43" y1="347.926" y2="356.726" stroke="#000" stroke-width="1.6" transform="rotate(-7 211.03 352.326)"/>
      </g>
    </g>
    <rect width="152" height="26" x="240.462" y="70.75" fill="#E06B63" mask="url(#projects-d)" opacity=".15" rx="5" transform="rotate(30 316.462 83.75)" style="mix-blend-mode:multiply"/>
  </g>
</svg>
